<svg width="606" height="744" viewBox="0 0 606 744" fill="none" xmlns="http://www.w3.org/2000/svg">
<path d="M15.785 743.244L40.5798 181.96L91.6279 181.96L116.423 743.244L15.785 743.244Z" fill="#D9D9D9"/>
<g filter="url(#filter0_d_8_2)">
<line y1="-1" x2="125.228" y2="-1" transform="matrix(0.999992 -0.00404913 0.0020523 0.999998 4 295.2)" stroke="black" stroke-width="2" stroke-dasharray="10 5"/>
</g>
<path d="M44.2805 176.537C44.2805 160.248 64.0596 126.88 82.6714 138.047C85.5403 139.768 86.7892 143.256 87.3459 139.638C88.3401 133.176 90.6913 125.852 93.7112 120.045C100.706 106.594 113.71 106.196 126.831 110.199C134.543 112.552 135.021 113.89 139.362 108.309C151.69 92.4592 159.19 76.4717 180.041 70.2164C186.962 68.14 191.784 73.532 196.451 78.0736C201.546 83.0302 201.049 83.3095 205.403 77.6757C217.416 62.1293 238.082 45.3548 258.911 45.6502C268.66 45.7885 278.166 49.2584 286.759 53.6069C288.601 54.5387 290.862 56.5906 293.125 56.5906C295.294 56.5906 297.156 49.6829 298.496 48.0372C306.928 37.6779 323.835 36.7911 335.892 33.7152C341.944 32.1713 345.185 31.7424 348.622 36.8979" stroke="black" stroke-width="3" stroke-linecap="round"/>
<path d="M92.6172 174.747C105.689 172.736 131.595 169.367 138.766 156.646C140.016 154.428 137.924 150.841 141.948 151.573C146.71 152.439 150.429 156.195 154.878 157.839C162.287 160.577 171.559 156.966 177.356 152.369C183.165 147.761 184.83 141.707 186.506 134.765C188.2 127.746 188.056 128.133 194.86 130.786C205.908 135.095 217.421 138.231 228.875 141.229C233.126 142.342 250.549 149.298 255.828 145.009C260.948 140.849 265.258 135.785 269.056 130.389C272.262 125.833 281.595 132.065 287.157 131.682C303.255 130.571 316.253 125.626 324.653 111.79C329.814 103.289 333.801 90.6053 344.445 90.6053C348.687 90.6053 352.989 92.1966 356.877 92.1966C368.825 92.1966 378.493 73.0379 384.427 65.5419" stroke="black" stroke-width="3" stroke-linecap="round"/>
<path d="M385.323 63.7516C391.845 63.7516 398.206 65.0997 404.717 65.4424C415.183 65.9932 420.715 61.1117 428.288 54.8004" stroke="black" stroke-width="3" stroke-linecap="round"/>
<path d="M96.1977 172.957C93.6512 173.275 91.5466 176.168 90.827 178.327" stroke="black" stroke-width="3" stroke-linecap="round"/>
<rect x="118.415" y="446.918" width="35.8049" height="31.3293" fill="#FBD349"/>
<rect x="118" y="233.825" width="230.942" height="31.3293" fill="#FBD349"/>
<path d="M132.912 465.168C132.912 466.043 132.64 466.763 132.096 467.328C131.552 467.883 130.677 468.16 129.472 468.16C128.992 468.16 128.491 468.107 127.968 468C127.456 467.883 126.923 467.701 126.368 467.456L126.784 466.304C127.317 466.517 127.792 466.672 128.208 466.768C128.635 466.864 129.045 466.912 129.44 466.912C130.101 466.912 130.613 466.773 130.976 466.496C131.349 466.219 131.536 465.765 131.536 465.136V464.88C131.536 464.347 131.381 463.92 131.072 463.6C130.763 463.28 130.288 463.12 129.648 463.12H128.048V461.904H129.648C130.256 461.904 130.704 461.755 130.992 461.456C131.28 461.147 131.424 460.731 131.424 460.208V459.984C131.424 459.355 131.253 458.907 130.912 458.64C130.571 458.363 130.096 458.224 129.488 458.224C129.115 458.224 128.731 458.272 128.336 458.368C127.941 458.453 127.493 458.603 126.992 458.816L126.544 457.648C127.077 457.403 127.589 457.227 128.08 457.12C128.581 457.013 129.061 456.96 129.52 456.96C130.672 456.96 131.509 457.237 132.032 457.792C132.555 458.347 132.816 459.067 132.816 459.952V460.176C132.816 460.709 132.688 461.179 132.432 461.584C132.176 461.979 131.829 462.288 131.392 462.512C131.861 462.725 132.229 463.04 132.496 463.456C132.773 463.861 132.912 464.347 132.912 464.912V465.168ZM142.561 461.36V463.744C142.561 465.195 142.235 466.293 141.585 467.04C140.934 467.787 140.027 468.16 138.865 468.16C137.702 468.16 136.795 467.787 136.145 467.04C135.505 466.293 135.185 465.195 135.185 463.744V461.36C135.185 459.92 135.51 458.827 136.161 458.08C136.811 457.333 137.713 456.96 138.865 456.96C140.027 456.96 140.934 457.333 141.585 458.08C142.235 458.827 142.561 459.92 142.561 461.36ZM141.153 461.36C141.153 460.251 140.95 459.451 140.545 458.96C140.15 458.469 139.59 458.224 138.865 458.224C138.15 458.224 137.59 458.469 137.185 458.96C136.79 459.451 136.593 460.251 136.593 461.36V463.744C136.593 464.843 136.79 465.648 137.185 466.16C137.59 466.661 138.15 466.912 138.865 466.912C139.59 466.912 140.15 466.661 140.545 466.16C140.95 465.648 141.153 464.843 141.153 463.744V461.36ZM152.834 461.232H150.242V468H148.93V461.232H147.554V460.08H148.93V458.768C148.93 458.277 149.01 457.824 149.17 457.408C149.34 456.981 149.612 456.64 149.986 456.384C150.359 456.128 150.855 456 151.474 456C151.783 456 152.108 456.037 152.45 456.112C152.802 456.176 153.127 456.277 153.426 456.416L153.058 457.52C152.514 457.307 152.039 457.2 151.634 457.2C151.186 457.2 150.839 457.323 150.594 457.568C150.359 457.813 150.242 458.208 150.242 458.752V460.08H152.834V461.232ZM160.059 468.08C159.569 468.08 159.174 467.968 158.875 467.744C158.587 467.52 158.385 467.243 158.267 466.912C157.745 467.371 157.27 467.696 156.843 467.888C156.417 468.069 155.99 468.16 155.563 468.16C154.87 468.16 154.358 467.936 154.027 467.488C153.697 467.04 153.531 466.491 153.531 465.84C153.531 465.403 153.611 465.013 153.771 464.672C153.931 464.331 154.203 464.064 154.587 463.872C154.971 463.669 155.489 463.568 156.139 463.568C156.427 463.568 156.742 463.589 157.083 463.632C157.425 463.664 157.771 463.707 158.123 463.76V462.688C158.123 462.091 157.99 461.685 157.723 461.472C157.467 461.248 157.089 461.136 156.587 461.136C155.905 461.136 155.142 461.323 154.299 461.696L153.883 460.608C154.374 460.384 154.843 460.213 155.291 460.096C155.739 459.979 156.193 459.92 156.651 459.92C157.398 459.92 157.969 460.043 158.363 460.288C158.758 460.533 159.03 460.859 159.179 461.264C159.329 461.669 159.403 462.112 159.403 462.592V466.016C159.403 466.261 159.451 466.469 159.547 466.64C159.643 466.8 159.835 466.88 160.123 466.88H160.299V468.08H160.059ZM154.827 465.824C154.827 466.187 154.913 466.48 155.083 466.704C155.254 466.928 155.499 467.04 155.819 467.04C156.097 467.04 156.417 466.96 156.779 466.8C157.142 466.629 157.59 466.293 158.123 465.792V464.784C157.398 464.667 156.758 464.608 156.203 464.608C155.713 464.608 155.361 464.709 155.147 464.912C154.934 465.115 154.827 465.419 154.827 465.824ZM163.086 463.568V464.512C163.086 465.323 163.235 465.936 163.534 466.352C163.833 466.757 164.307 466.96 164.958 466.96C165.598 466.96 166.286 466.795 167.022 466.464L167.422 467.568C166.547 467.963 165.699 468.16 164.878 468.16C163.854 468.16 163.075 467.835 162.542 467.184C162.009 466.533 161.742 465.643 161.742 464.512V463.568C161.742 462.437 162.009 461.547 162.542 460.896C163.075 460.245 163.854 459.92 164.878 459.92C165.262 459.92 165.657 459.973 166.062 460.08C166.478 460.176 166.894 460.315 167.31 460.496L166.91 461.616C166.558 461.467 166.217 461.349 165.886 461.264C165.566 461.179 165.257 461.136 164.958 461.136C164.307 461.136 163.833 461.344 163.534 461.76C163.235 462.165 163.086 462.768 163.086 463.568ZM170.738 458.144H169.266V456.672H170.738V458.144ZM170.658 468H169.346V460.08H170.658V468ZM173.47 466.08V456.16H174.782V466.016C174.782 466.304 174.825 466.523 174.91 466.672C175.006 466.811 175.193 466.88 175.47 466.88H175.726V468.08H175.358C174.654 468.08 174.163 467.893 173.886 467.52C173.609 467.147 173.47 466.667 173.47 466.08ZM179.097 458.144H177.625V456.672H179.097V458.144ZM179.017 468H177.705V460.08H179.017V468ZM186.198 467.712C185.6 468.011 184.966 468.16 184.294 468.16C183.718 468.16 183.264 468.043 182.934 467.808C182.614 467.573 182.384 467.259 182.246 466.864C182.118 466.469 182.054 466.032 182.054 465.552V461.232H180.678V460.08H182.054V457.872H183.366V460.08H185.958V461.232H183.366V465.504C183.366 466.059 183.456 466.443 183.638 466.656C183.83 466.859 184.123 466.96 184.518 466.96C184.71 466.96 184.907 466.939 185.11 466.896C185.323 466.843 185.552 466.757 185.798 466.64L186.198 467.712ZM189.316 458.144H187.844V456.672H189.316V458.144ZM189.236 468H187.924V460.08H189.236V468ZM197.808 467.536C197.328 467.771 196.848 467.931 196.368 468.016C195.888 468.112 195.446 468.16 195.04 468.16C193.899 468.16 193.046 467.835 192.48 467.184C191.926 466.533 191.648 465.643 191.648 464.512V463.552C191.648 462.453 191.926 461.573 192.48 460.912C193.046 460.251 193.84 459.92 194.864 459.92C195.408 459.92 195.904 460.032 196.352 460.256C196.811 460.469 197.174 460.8 197.44 461.248C197.718 461.685 197.856 462.251 197.856 462.944C197.856 463.392 197.792 463.904 197.664 464.48H192.944V464.512C192.944 465.323 193.11 465.936 193.44 466.352C193.782 466.768 194.326 466.976 195.072 466.976C195.414 466.976 195.787 466.933 196.192 466.848C196.608 466.763 197.014 466.629 197.408 466.448L197.808 467.536ZM194.864 461.072C194.246 461.072 193.776 461.275 193.456 461.68C193.147 462.075 192.976 462.635 192.944 463.36H196.528C196.56 463.168 196.576 462.987 196.576 462.816C196.576 462.219 196.406 461.781 196.064 461.504C195.734 461.216 195.334 461.072 194.864 461.072ZM202.063 466.992C203.129 466.992 203.663 466.629 203.663 465.904C203.663 465.595 203.567 465.349 203.375 465.168C203.183 464.987 202.831 464.832 202.319 464.704L201.439 464.48C200.788 464.32 200.303 464.043 199.983 463.648C199.663 463.243 199.503 462.763 199.503 462.208C199.503 461.803 199.593 461.429 199.775 461.088C199.956 460.736 200.244 460.453 200.639 460.24C201.033 460.027 201.545 459.92 202.175 459.92C202.58 459.92 202.991 459.968 203.407 460.064C203.833 460.149 204.265 460.299 204.703 460.512L204.287 461.616C203.508 461.264 202.804 461.088 202.175 461.088C201.247 461.088 200.783 461.435 200.783 462.128C200.783 462.395 200.868 462.624 201.039 462.816C201.209 463.008 201.529 463.163 201.999 463.28L202.879 463.504C203.583 463.675 204.1 463.952 204.431 464.336C204.761 464.72 204.927 465.216 204.927 465.824C204.927 466.261 204.831 466.661 204.639 467.024C204.457 467.376 204.159 467.653 203.743 467.856C203.337 468.059 202.788 468.16 202.095 468.16C201.636 468.16 201.177 468.112 200.719 468.016C200.271 467.92 199.807 467.765 199.327 467.552L199.679 466.464C200.137 466.645 200.553 466.779 200.927 466.864C201.3 466.949 201.679 466.992 202.063 466.992ZM216.294 468.08C215.803 468.08 215.408 467.968 215.11 467.744C214.822 467.52 214.619 467.243 214.502 466.912C213.979 467.371 213.504 467.696 213.078 467.888C212.651 468.069 212.224 468.16 211.798 468.16C211.104 468.16 210.592 467.936 210.262 467.488C209.931 467.04 209.766 466.491 209.766 465.84C209.766 465.403 209.846 465.013 210.006 464.672C210.166 464.331 210.438 464.064 210.822 463.872C211.206 463.669 211.723 463.568 212.374 463.568C212.662 463.568 212.976 463.589 213.318 463.632C213.659 463.664 214.006 463.707 214.358 463.76V462.688C214.358 462.091 214.224 461.685 213.958 461.472C213.702 461.248 213.323 461.136 212.822 461.136C212.139 461.136 211.376 461.323 210.534 461.696L210.118 460.608C210.608 460.384 211.078 460.213 211.526 460.096C211.974 459.979 212.427 459.92 212.886 459.92C213.632 459.92 214.203 460.043 214.598 460.288C214.992 460.533 215.264 460.859 215.414 461.264C215.563 461.669 215.638 462.112 215.638 462.592V466.016C215.638 466.261 215.686 466.469 215.782 466.64C215.878 466.8 216.07 466.88 216.358 466.88H216.534V468.08H216.294ZM211.062 465.824C211.062 466.187 211.147 466.48 211.318 466.704C211.488 466.928 211.734 467.04 212.054 467.04C212.331 467.04 212.651 466.96 213.014 466.8C213.376 466.629 213.824 466.293 214.358 465.792V464.784C213.632 464.667 212.992 464.608 212.438 464.608C211.947 464.608 211.595 464.709 211.382 464.912C211.168 465.115 211.062 465.419 211.062 465.824ZM222.552 461.232C222.072 461.232 221.603 461.317 221.144 461.488C220.696 461.659 220.216 461.984 219.704 462.464V468H218.392V460.08H219.64V461.36C220.184 460.827 220.68 460.453 221.128 460.24C221.587 460.027 222.062 459.92 222.552 459.92V461.232ZM230.011 467.536C229.531 467.771 229.051 467.931 228.571 468.016C228.091 468.112 227.649 468.16 227.243 468.16C226.102 468.16 225.249 467.835 224.683 467.184C224.129 466.533 223.851 465.643 223.851 464.512V463.552C223.851 462.453 224.129 461.573 224.683 460.912C225.249 460.251 226.043 459.92 227.067 459.92C227.611 459.92 228.107 460.032 228.555 460.256C229.014 460.469 229.377 460.8 229.643 461.248C229.921 461.685 230.059 462.251 230.059 462.944C230.059 463.392 229.995 463.904 229.867 464.48H225.147V464.512C225.147 465.323 225.313 465.936 225.643 466.352C225.985 466.768 226.529 466.976 227.275 466.976C227.617 466.976 227.99 466.933 228.395 466.848C228.811 466.763 229.217 466.629 229.611 466.448L230.011 467.536ZM227.067 461.072C226.449 461.072 225.979 461.275 225.659 461.68C225.35 462.075 225.179 462.635 225.147 463.36H228.731C228.763 463.168 228.779 462.987 228.779 462.816C228.779 462.219 228.609 461.781 228.267 461.504C227.937 461.216 227.537 461.072 227.067 461.072ZM239.974 461.232C239.494 461.232 239.025 461.317 238.566 461.488C238.118 461.659 237.638 461.984 237.126 462.464V468H235.814V460.08H237.062V461.36C237.606 460.827 238.102 460.453 238.55 460.24C239.009 460.027 239.484 459.92 239.974 459.92V461.232ZM247.433 467.536C246.953 467.771 246.473 467.931 245.993 468.016C245.513 468.112 245.071 468.16 244.665 468.16C243.524 468.16 242.671 467.835 242.105 467.184C241.551 466.533 241.273 465.643 241.273 464.512V463.552C241.273 462.453 241.551 461.573 242.105 460.912C242.671 460.251 243.465 459.92 244.489 459.92C245.033 459.92 245.529 460.032 245.977 460.256C246.436 460.469 246.799 460.8 247.065 461.248C247.343 461.685 247.481 462.251 247.481 462.944C247.481 463.392 247.417 463.904 247.289 464.48H242.569V464.512C242.569 465.323 242.735 465.936 243.065 466.352C243.407 466.768 243.951 466.976 244.697 466.976C245.039 466.976 245.412 466.933 245.817 466.848C246.233 466.763 246.639 466.629 247.033 466.448L247.433 467.536ZM244.489 461.072C243.871 461.072 243.401 461.275 243.081 461.68C242.772 462.075 242.601 462.635 242.569 463.36H246.153C246.185 463.168 246.201 462.987 246.201 462.816C246.201 462.219 246.031 461.781 245.689 461.504C245.359 461.216 244.959 461.072 244.489 461.072ZM251.688 466.992C252.754 466.992 253.288 466.629 253.288 465.904C253.288 465.595 253.192 465.349 253 465.168C252.808 464.987 252.456 464.832 251.944 464.704L251.064 464.48C250.413 464.32 249.928 464.043 249.608 463.648C249.288 463.243 249.128 462.763 249.128 462.208C249.128 461.803 249.218 461.429 249.4 461.088C249.581 460.736 249.869 460.453 250.264 460.24C250.658 460.027 251.17 459.92 251.8 459.92C252.205 459.92 252.616 459.968 253.032 460.064C253.458 460.149 253.89 460.299 254.328 460.512L253.912 461.616C253.133 461.264 252.429 461.088 251.8 461.088C250.872 461.088 250.408 461.435 250.408 462.128C250.408 462.395 250.493 462.624 250.664 462.816C250.834 463.008 251.154 463.163 251.624 463.28L252.504 463.504C253.208 463.675 253.725 463.952 254.056 464.336C254.386 464.72 254.552 465.216 254.552 465.824C254.552 466.261 254.456 466.661 254.264 467.024C254.082 467.376 253.784 467.653 253.368 467.856C252.962 468.059 252.413 468.16 251.72 468.16C251.261 468.16 250.802 468.112 250.344 468.016C249.896 467.92 249.432 467.765 248.952 467.552L249.304 466.464C249.762 466.645 250.178 466.779 250.552 466.864C250.925 466.949 251.304 466.992 251.688 466.992ZM259.81 468.16C259.213 468.16 258.594 468.037 257.954 467.792V471.408H256.642V460.08H257.89V461.2C258.381 460.731 258.829 460.4 259.234 460.208C259.64 460.016 260.056 459.92 260.482 459.92C261.325 459.92 261.97 460.24 262.418 460.88C262.877 461.52 263.106 462.421 263.106 463.584V464.512C263.106 465.621 262.824 466.507 262.258 467.168C261.704 467.829 260.888 468.16 259.81 468.16ZM260.162 461.152C259.853 461.152 259.533 461.232 259.202 461.392C258.872 461.552 258.456 461.877 257.954 462.368V466.592C258.264 466.731 258.562 466.832 258.85 466.896C259.138 466.949 259.421 466.976 259.698 466.976C260.424 466.976 260.946 466.757 261.266 466.32C261.586 465.872 261.746 465.269 261.746 464.512V463.584C261.746 462.752 261.613 462.139 261.346 461.744C261.09 461.349 260.696 461.152 260.162 461.152ZM271.805 463.552V464.512C271.805 465.643 271.512 466.533 270.925 467.184C270.349 467.835 269.522 468.16 268.445 468.16C267.378 468.16 266.552 467.835 265.965 467.184C265.378 466.533 265.085 465.643 265.085 464.512V463.552C265.085 462.443 265.373 461.563 265.949 460.912C266.536 460.251 267.368 459.92 268.445 459.92C269.522 459.92 270.349 460.251 270.925 460.912C271.512 461.563 271.805 462.443 271.805 463.552ZM270.445 463.552C270.445 462.795 270.274 462.203 269.933 461.776C269.592 461.339 269.096 461.12 268.445 461.12C267.805 461.12 267.309 461.339 266.957 461.776C266.616 462.203 266.445 462.795 266.445 463.552V464.512C266.445 465.301 266.616 465.909 266.957 466.336C267.309 466.763 267.805 466.976 268.445 466.976C269.096 466.976 269.592 466.763 269.933 466.336C270.274 465.909 270.445 465.301 270.445 464.512V463.552ZM277.997 461.152C277.699 461.152 277.347 461.227 276.941 461.376C276.547 461.525 276.067 461.829 275.501 462.288V468H274.189V460.08H275.437V461.184C276.003 460.704 276.515 460.373 276.973 460.192C277.443 460.011 277.891 459.92 278.317 459.92C279.053 459.92 279.613 460.155 279.997 460.624C280.392 461.083 280.589 461.739 280.589 462.592V468H279.277V462.784C279.277 461.696 278.851 461.152 277.997 461.152ZM285.266 466.992C286.333 466.992 286.866 466.629 286.866 465.904C286.866 465.595 286.77 465.349 286.578 465.168C286.386 464.987 286.034 464.832 285.522 464.704L284.642 464.48C283.991 464.32 283.506 464.043 283.186 463.648C282.866 463.243 282.706 462.763 282.706 462.208C282.706 461.803 282.797 461.429 282.978 461.088C283.159 460.736 283.447 460.453 283.842 460.24C284.237 460.027 284.749 459.92 285.378 459.92C285.783 459.92 286.194 459.968 286.61 460.064C287.037 460.149 287.469 460.299 287.906 460.512L287.49 461.616C286.711 461.264 286.007 461.088 285.378 461.088C284.45 461.088 283.986 461.435 283.986 462.128C283.986 462.395 284.071 462.624 284.242 462.816C284.413 463.008 284.733 463.163 285.202 463.28L286.082 463.504C286.786 463.675 287.303 463.952 287.634 464.336C287.965 464.72 288.13 465.216 288.13 465.824C288.13 466.261 288.034 466.661 287.842 467.024C287.661 467.376 287.362 467.653 286.946 467.856C286.541 468.059 285.991 468.16 285.298 468.16C284.839 468.16 284.381 468.112 283.922 468.016C283.474 467.92 283.01 467.765 282.53 467.552L282.882 466.464C283.341 466.645 283.757 466.779 284.13 466.864C284.503 466.949 284.882 466.992 285.266 466.992ZM291.613 458.144H290.141V456.672H291.613V458.144ZM291.533 468H290.221V460.08H291.533V468ZM300.761 464.512C300.761 465.621 300.484 466.507 299.929 467.168C299.374 467.829 298.558 468.16 297.481 468.16C296.414 468.16 295.358 467.877 294.313 467.312V456.16H295.625V461.152C296.105 460.704 296.542 460.389 296.937 460.208C297.342 460.016 297.753 459.92 298.169 459.92C299.001 459.92 299.641 460.24 300.089 460.88C300.537 461.52 300.761 462.421 300.761 463.584V464.512ZM297.849 461.152C297.55 461.152 297.23 461.232 296.889 461.392C296.558 461.552 296.137 461.883 295.625 462.384V466.576C296.254 466.843 296.846 466.976 297.401 466.976C298.116 466.976 298.628 466.757 298.937 466.32C299.246 465.872 299.401 465.269 299.401 464.512V463.584C299.401 462.752 299.273 462.139 299.017 461.744C298.761 461.349 298.372 461.152 297.849 461.152ZM303.173 466.08V456.16H304.485V466.016C304.485 466.304 304.528 466.523 304.613 466.672C304.709 466.811 304.896 466.88 305.173 466.88H305.429V468.08H305.061C304.357 468.08 303.867 467.893 303.589 467.52C303.312 467.147 303.173 466.667 303.173 466.08ZM313.152 467.536C312.672 467.771 312.192 467.931 311.712 468.016C311.232 468.112 310.789 468.16 310.384 468.16C309.243 468.16 308.389 467.835 307.824 467.184C307.269 466.533 306.992 465.643 306.992 464.512V463.552C306.992 462.453 307.269 461.573 307.824 460.912C308.389 460.251 309.184 459.92 310.208 459.92C310.752 459.92 311.248 460.032 311.696 460.256C312.155 460.469 312.517 460.8 312.784 461.248C313.061 461.685 313.2 462.251 313.2 462.944C313.2 463.392 313.136 463.904 313.008 464.48H308.288V464.512C308.288 465.323 308.453 465.936 308.784 466.352C309.125 466.768 309.669 466.976 310.416 466.976C310.757 466.976 311.131 466.933 311.536 466.848C311.952 466.763 312.357 466.629 312.752 466.448L313.152 467.536ZM310.208 461.072C309.589 461.072 309.12 461.275 308.8 461.68C308.491 462.075 308.32 462.635 308.288 463.36H311.872C311.904 463.168 311.92 462.987 311.92 462.816C311.92 462.219 311.749 461.781 311.408 461.504C311.077 461.216 310.677 461.072 310.208 461.072ZM323.115 461.232H320.523V468H319.211V461.232H317.835V460.08H319.211V458.768C319.211 458.277 319.291 457.824 319.451 457.408C319.622 456.981 319.894 456.64 320.267 456.384C320.64 456.128 321.136 456 321.755 456C322.064 456 322.39 456.037 322.731 456.112C323.083 456.176 323.408 456.277 323.707 456.416L323.339 457.52C322.795 457.307 322.32 457.2 321.915 457.2C321.467 457.2 321.12 457.323 320.875 457.568C320.64 457.813 320.523 458.208 320.523 458.752V460.08H323.115V461.232ZM330.821 463.552V464.512C330.821 465.643 330.527 466.533 329.941 467.184C329.365 467.835 328.538 468.16 327.461 468.16C326.394 468.16 325.567 467.835 324.981 467.184C324.394 466.533 324.101 465.643 324.101 464.512V463.552C324.101 462.443 324.389 461.563 324.965 460.912C325.551 460.251 326.383 459.92 327.461 459.92C328.538 459.92 329.365 460.251 329.941 460.912C330.527 461.563 330.821 462.443 330.821 463.552ZM329.461 463.552C329.461 462.795 329.29 462.203 328.949 461.776C328.607 461.339 328.111 461.12 327.461 461.12C326.821 461.12 326.325 461.339 325.973 461.776C325.631 462.203 325.461 462.795 325.461 463.552V464.512C325.461 465.301 325.631 465.909 325.973 466.336C326.325 466.763 326.821 466.976 327.461 466.976C328.111 466.976 328.607 466.763 328.949 466.336C329.29 465.909 329.461 465.301 329.461 464.512V463.552ZM337.365 461.232C336.885 461.232 336.416 461.317 335.957 461.488C335.509 461.659 335.029 461.984 334.517 462.464V468H333.205V460.08H334.453V461.36C334.997 460.827 335.493 460.453 335.941 460.24C336.4 460.027 336.874 459.92 337.365 459.92V461.232ZM349.524 464.736C349.524 465.387 349.38 465.973 349.092 466.496C348.804 467.008 348.394 467.413 347.86 467.712C347.338 468.011 346.703 468.16 345.956 468.16C344.772 468.16 343.85 467.76 343.188 466.96C342.527 466.16 342.196 465.061 342.196 463.664V461.408C342.196 459.915 342.548 458.8 343.252 458.064C343.956 457.328 344.948 456.96 346.228 456.96C346.676 456.96 347.14 457.013 347.62 457.12C348.111 457.227 348.65 457.419 349.236 457.696L348.548 459.344C348.068 459.12 347.647 458.965 347.284 458.88C346.922 458.784 346.586 458.736 346.276 458.736C345.604 458.736 345.06 458.939 344.644 459.344C344.239 459.739 344.036 460.427 344.036 461.408V461.984C344.41 461.653 344.794 461.408 345.188 461.248C345.594 461.088 345.994 461.008 346.388 461.008C347.028 461.008 347.583 461.152 348.052 461.44C348.522 461.728 348.884 462.128 349.14 462.64C349.396 463.152 349.524 463.744 349.524 464.416V464.736ZM344.036 463.664C344.036 464.581 344.207 465.264 344.548 465.712C344.89 466.16 345.37 466.384 345.988 466.384C346.522 466.384 346.932 466.235 347.22 465.936C347.508 465.627 347.652 465.227 347.652 464.736V464.416C347.652 463.915 347.519 463.509 347.252 463.2C346.986 462.891 346.602 462.736 346.1 462.736C345.343 462.736 344.655 463.024 344.036 463.6V463.664ZM352.842 466.096V466.4C352.842 467.296 352.74 468.149 352.538 468.96C352.335 469.781 351.946 470.651 351.37 471.568L350.218 470.944C350.452 470.507 350.628 470.059 350.746 469.6C350.863 469.152 350.943 468.645 350.986 468.08C351.028 467.515 351.05 466.853 351.05 466.096H352.842ZM360.777 465.04C360.777 465.605 360.659 466.128 360.425 466.608C360.19 467.077 359.811 467.456 359.289 467.744C358.777 468.021 358.089 468.16 357.225 468.16C356.734 468.16 356.222 468.101 355.689 467.984C355.166 467.867 354.59 467.669 353.961 467.392L354.553 465.744C355.118 465.947 355.593 466.107 355.977 466.224C356.371 466.331 356.766 466.384 357.161 466.384C357.726 466.384 358.153 466.272 358.441 466.048C358.739 465.813 358.889 465.451 358.889 464.96V464.736C358.889 464.331 358.761 464.005 358.505 463.76C358.259 463.504 357.875 463.376 357.353 463.376H355.657V461.648H357.353C357.854 461.648 358.222 461.531 358.457 461.296C358.691 461.051 358.809 460.736 358.809 460.352V460.128C358.809 459.637 358.67 459.285 358.393 459.072C358.126 458.848 357.731 458.736 357.209 458.736C356.835 458.736 356.457 458.789 356.073 458.896C355.699 458.992 355.246 459.141 354.713 459.344L354.121 457.696C354.718 457.419 355.273 457.227 355.785 457.12C356.297 457.013 356.793 456.96 357.273 456.96C358.094 456.96 358.755 457.099 359.257 457.376C359.758 457.653 360.121 458.027 360.345 458.496C360.579 458.965 360.697 459.483 360.697 460.048V460.272C360.697 460.773 360.569 461.216 360.313 461.6C360.067 461.973 359.742 462.272 359.337 462.496C359.774 462.731 360.121 463.045 360.377 463.44C360.643 463.824 360.777 464.283 360.777 464.816V465.04ZM370.024 464.736C370.024 465.387 369.88 465.973 369.592 466.496C369.304 467.008 368.894 467.413 368.36 467.712C367.838 468.011 367.203 468.16 366.456 468.16C365.272 468.16 364.35 467.76 363.688 466.96C363.027 466.16 362.696 465.061 362.696 463.664V461.408C362.696 459.915 363.048 458.8 363.752 458.064C364.456 457.328 365.448 456.96 366.728 456.96C367.176 456.96 367.64 457.013 368.12 457.12C368.611 457.227 369.15 457.419 369.736 457.696L369.048 459.344C368.568 459.12 368.147 458.965 367.784 458.88C367.422 458.784 367.086 458.736 366.776 458.736C366.104 458.736 365.56 458.939 365.144 459.344C364.739 459.739 364.536 460.427 364.536 461.408V461.984C364.91 461.653 365.294 461.408 365.688 461.248C366.094 461.088 366.494 461.008 366.888 461.008C367.528 461.008 368.083 461.152 368.552 461.44C369.022 461.728 369.384 462.128 369.64 462.64C369.896 463.152 370.024 463.744 370.024 464.416V464.736ZM364.536 463.664C364.536 464.581 364.707 465.264 365.048 465.712C365.39 466.16 365.87 466.384 366.488 466.384C367.022 466.384 367.432 466.235 367.72 465.936C368.008 465.627 368.152 465.227 368.152 464.736V464.416C368.152 463.915 368.019 463.509 367.752 463.2C367.486 462.891 367.102 462.736 366.6 462.736C365.843 462.736 365.155 463.024 364.536 463.6V463.664ZM378.83 463.712C378.83 465.205 378.478 466.32 377.774 467.056C377.07 467.792 376.078 468.16 374.798 468.16C374.35 468.16 373.886 468.107 373.406 468C372.926 467.893 372.387 467.701 371.79 467.424L372.478 465.776C372.958 466 373.379 466.16 373.742 466.256C374.115 466.341 374.451 466.384 374.75 466.384C375.422 466.384 375.96 466.181 376.366 465.776C376.782 465.371 376.99 464.683 376.99 463.712V463.136C376.627 463.467 376.243 463.712 375.838 463.872C375.443 464.032 375.043 464.112 374.638 464.112C374.008 464.112 373.454 463.968 372.974 463.68C372.504 463.392 372.142 462.992 371.886 462.48C371.63 461.968 371.502 461.376 371.502 460.704V460.384C371.502 459.787 371.646 459.227 371.934 458.704C372.222 458.181 372.632 457.76 373.166 457.44C373.699 457.12 374.334 456.96 375.07 456.96C376.254 456.96 377.176 457.36 377.838 458.16C378.499 458.96 378.83 460.059 378.83 461.456V463.712ZM373.374 460.704C373.374 461.195 373.507 461.6 373.774 461.92C374.051 462.229 374.435 462.384 374.926 462.384C375.683 462.384 376.371 462.096 376.99 461.52V461.456C376.99 460.539 376.819 459.856 376.478 459.408C376.147 458.96 375.667 458.736 375.038 458.736C374.515 458.736 374.104 458.907 373.806 459.248C373.518 459.589 373.374 459.968 373.374 460.384V460.704ZM386.182 462.384V468H384.342V459.888H386.086V460.96C386.587 460.523 387.051 460.208 387.478 460.016C387.905 459.824 388.342 459.728 388.79 459.728C389.782 459.728 390.459 460.165 390.822 461.04C391.355 460.571 391.851 460.235 392.31 460.032C392.769 459.829 393.233 459.728 393.702 459.728C394.449 459.728 395.019 459.979 395.414 460.48C395.809 460.971 396.006 461.664 396.006 462.56V468H394.166V462.784C394.166 461.888 393.825 461.44 393.142 461.44C392.875 461.44 392.582 461.504 392.262 461.632C391.942 461.76 391.553 462.011 391.094 462.384V468H389.254V462.784C389.254 461.888 388.913 461.44 388.23 461.44C387.963 461.44 387.67 461.504 387.35 461.632C387.03 461.76 386.641 462.011 386.182 462.384ZM400.324 458.352H398.388V456.448H400.324V458.352ZM400.276 468H398.436V459.888H400.276V468ZM402.763 465.712V456.16H404.603V465.712C404.603 465.872 404.64 466.027 404.715 466.176C404.8 466.315 404.96 466.384 405.195 466.384H405.451V468.08H405.003C404.395 468.08 403.931 467.963 403.611 467.728C403.291 467.493 403.067 467.195 402.939 466.832C402.822 466.469 402.763 466.096 402.763 465.712ZM407.185 465.712V456.16H409.025V465.712C409.025 465.872 409.062 466.027 409.137 466.176C409.222 466.315 409.382 466.384 409.617 466.384H409.873V468.08H409.425C408.817 468.08 408.353 467.963 408.033 467.728C407.713 467.493 407.489 467.195 407.361 466.832C407.243 466.469 407.185 466.096 407.185 465.712ZM413.543 458.352H411.607V456.448H413.543V458.352ZM413.495 468H411.655V459.888H413.495V468ZM422.67 463.456V464.416C422.67 465.547 422.36 466.453 421.742 467.136C421.123 467.819 420.248 468.16 419.118 468.16C417.987 468.16 417.112 467.819 416.494 467.136C415.875 466.453 415.566 465.547 415.566 464.416V463.456C415.566 462.325 415.87 461.424 416.478 460.752C417.096 460.069 417.976 459.728 419.118 459.728C420.259 459.728 421.134 460.069 421.742 460.752C422.36 461.424 422.67 462.325 422.67 463.456ZM420.782 463.456C420.782 462.805 420.638 462.299 420.35 461.936C420.062 461.563 419.651 461.376 419.118 461.376C418.584 461.376 418.174 461.563 417.886 461.936C417.598 462.299 417.454 462.805 417.454 463.456V464.416C417.454 465.067 417.598 465.579 417.886 465.952C418.174 466.325 418.584 466.512 419.118 466.512C419.651 466.512 420.062 466.325 420.35 465.952C420.638 465.579 420.782 465.067 420.782 464.416V463.456ZM428.701 461.44C428.434 461.44 428.13 461.504 427.789 461.632C427.447 461.76 427.042 462.011 426.573 462.384V468H424.733V459.888H426.477V460.976C426.978 460.539 427.453 460.224 427.901 460.032C428.349 459.829 428.802 459.728 429.261 459.728C430.039 459.728 430.631 459.979 431.037 460.48C431.442 460.971 431.645 461.664 431.645 462.56V468H429.805V462.784C429.805 461.888 429.437 461.44 428.701 461.44ZM443.44 467.536C442.885 467.76 442.362 467.92 441.872 468.016C441.381 468.112 440.917 468.16 440.48 468.16C439.274 468.16 438.362 467.819 437.744 467.136C437.125 466.453 436.816 465.547 436.816 464.416V463.456C436.816 462.699 436.954 462.043 437.232 461.488C437.509 460.933 437.904 460.501 438.416 460.192C438.928 459.883 439.53 459.728 440.224 459.728C440.789 459.728 441.317 459.845 441.808 460.08C442.309 460.304 442.714 460.661 443.024 461.152C443.344 461.632 443.504 462.251 443.504 463.008C443.504 463.232 443.488 463.472 443.456 463.728C443.424 463.973 443.37 464.235 443.296 464.512H438.592C438.613 465.173 438.778 465.669 439.088 466C439.397 466.331 439.893 466.496 440.576 466.496C440.938 466.496 441.312 466.453 441.696 466.368C442.09 466.283 442.496 466.155 442.912 465.984L443.44 467.536ZM440.224 461.28C439.733 461.28 439.349 461.44 439.072 461.76C438.805 462.069 438.65 462.517 438.608 463.104H441.68C441.69 463.051 441.696 463.003 441.696 462.96C441.696 462.907 441.696 462.859 441.696 462.816C441.696 462.304 441.552 461.92 441.264 461.664C440.976 461.408 440.629 461.28 440.224 461.28ZM450.455 468V466.928C449.965 467.355 449.506 467.669 449.079 467.872C448.653 468.064 448.221 468.16 447.783 468.16C447.058 468.16 446.498 467.915 446.103 467.424C445.709 466.923 445.511 466.224 445.511 465.328V459.888H447.351V465.104C447.351 466 447.682 466.448 448.343 466.448C448.61 466.448 448.898 466.384 449.207 466.256C449.527 466.128 449.911 465.883 450.359 465.52V459.888H452.199V468H450.455ZM459.309 461.568C458.807 461.568 458.327 461.648 457.869 461.808C457.421 461.957 456.989 462.203 456.573 462.544V468H454.733V459.888H456.477V461.136C457.021 460.624 457.506 460.261 457.933 460.048C458.359 459.835 458.818 459.728 459.309 459.728V461.568ZM467.56 463.456V464.416C467.56 465.547 467.251 466.453 466.632 467.136C466.014 467.819 465.139 468.16 464.008 468.16C462.878 468.16 462.003 467.819 461.384 467.136C460.766 466.453 460.456 465.547 460.456 464.416V463.456C460.456 462.325 460.76 461.424 461.368 460.752C461.987 460.069 462.867 459.728 464.008 459.728C465.15 459.728 466.024 460.069 466.632 460.752C467.251 461.424 467.56 462.325 467.56 463.456ZM465.672 463.456C465.672 462.805 465.528 462.299 465.24 461.936C464.952 461.563 464.542 461.376 464.008 461.376C463.475 461.376 463.064 461.563 462.776 461.936C462.488 462.299 462.344 462.805 462.344 463.456V464.416C462.344 465.067 462.488 465.579 462.776 465.952C463.064 466.325 463.475 466.512 464.008 466.512C464.542 466.512 464.952 466.325 465.24 465.952C465.528 465.579 465.672 465.067 465.672 464.416V463.456ZM471.895 466.56C472.29 466.56 472.615 466.496 472.871 466.368C473.127 466.229 473.255 466.027 473.255 465.76C473.255 465.525 473.17 465.344 472.999 465.216C472.839 465.077 472.546 464.955 472.119 464.848L471.207 464.608C470.503 464.427 469.981 464.123 469.639 463.696C469.309 463.269 469.143 462.763 469.143 462.176C469.143 461.483 469.383 460.901 469.863 460.432C470.343 459.963 471.085 459.728 472.087 459.728C472.493 459.728 472.919 459.776 473.367 459.872C473.815 459.968 474.285 460.123 474.775 460.336L474.247 461.904C473.799 461.691 473.394 461.541 473.031 461.456C472.669 461.371 472.349 461.328 472.071 461.328C471.314 461.328 470.935 461.584 470.935 462.096C470.935 462.299 470.999 462.459 471.127 462.576C471.266 462.693 471.517 462.8 471.879 462.896L472.791 463.136C473.57 463.339 474.135 463.648 474.487 464.064C474.85 464.48 475.031 465.003 475.031 465.632C475.031 466.379 474.775 466.987 474.263 467.456C473.762 467.925 472.967 468.16 471.879 468.16C470.951 468.16 469.975 467.947 468.951 467.52L469.447 466C469.949 466.203 470.402 466.347 470.807 466.432C471.213 466.517 471.575 466.56 471.895 466.56ZM481.941 458.144H480.469V456.672H481.941V458.144ZM481.861 468H480.549V460.08H481.861V468ZM488.497 461.152C488.199 461.152 487.847 461.227 487.441 461.376C487.047 461.525 486.567 461.829 486.001 462.288V468H484.689V460.08H485.937V461.184C486.503 460.704 487.015 460.373 487.473 460.192C487.943 460.011 488.391 459.92 488.817 459.92C489.553 459.92 490.113 460.155 490.497 460.624C490.892 461.083 491.089 461.739 491.089 462.592V468H489.777V462.784C489.777 461.696 489.351 461.152 488.497 461.152ZM500.482 468.16C499.885 468.16 499.266 468.037 498.626 467.792V471.408H497.314V460.08H498.562V461.2C499.053 460.731 499.501 460.4 499.906 460.208C500.312 460.016 500.728 459.92 501.154 459.92C501.997 459.92 502.642 460.24 503.09 460.88C503.549 461.52 503.778 462.421 503.778 463.584V464.512C503.778 465.621 503.496 466.507 502.93 467.168C502.376 467.829 501.56 468.16 500.482 468.16ZM500.834 461.152C500.525 461.152 500.205 461.232 499.874 461.392C499.544 461.552 499.128 461.877 498.626 462.368V466.592C498.936 466.731 499.234 466.832 499.522 466.896C499.81 466.949 500.093 466.976 500.37 466.976C501.096 466.976 501.618 466.757 501.938 466.32C502.258 465.872 502.418 465.269 502.418 464.512V463.584C502.418 462.752 502.285 462.139 502.018 461.744C501.762 461.349 501.368 461.152 500.834 461.152ZM512.477 463.552V464.512C512.477 465.643 512.184 466.533 511.597 467.184C511.021 467.835 510.194 468.16 509.117 468.16C508.05 468.16 507.224 467.835 506.637 467.184C506.05 466.533 505.757 465.643 505.757 464.512V463.552C505.757 462.443 506.045 461.563 506.621 460.912C507.208 460.251 508.04 459.92 509.117 459.92C510.194 459.92 511.021 460.251 511.597 460.912C512.184 461.563 512.477 462.443 512.477 463.552ZM511.117 463.552C511.117 462.795 510.946 462.203 510.605 461.776C510.264 461.339 509.768 461.12 509.117 461.12C508.477 461.12 507.981 461.339 507.629 461.776C507.288 462.203 507.117 462.795 507.117 463.552V464.512C507.117 465.301 507.288 465.909 507.629 466.336C507.981 466.763 508.477 466.976 509.117 466.976C509.768 466.976 510.264 466.763 510.605 466.336C510.946 465.909 511.117 465.301 511.117 464.512V463.552ZM514.845 466.08V456.16H516.157V466.016C516.157 466.304 516.2 466.523 516.285 466.672C516.381 466.811 516.568 466.88 516.845 466.88H517.101V468.08H516.733C516.029 468.08 515.538 467.893 515.261 467.52C514.984 467.147 514.845 466.667 514.845 466.08ZM519.064 466.08V456.16H520.376V466.016C520.376 466.304 520.419 466.523 520.504 466.672C520.6 466.811 520.787 466.88 521.064 466.88H521.32V468.08H520.952C520.248 468.08 519.757 467.893 519.48 467.52C519.203 467.147 519.064 466.667 519.064 466.08ZM528.179 468V466.88C527.624 467.36 527.128 467.696 526.691 467.888C526.253 468.069 525.816 468.16 525.379 468.16C524.675 468.16 524.136 467.931 523.763 467.472C523.389 467.003 523.203 466.347 523.203 465.504V460.08H524.515V465.312C524.515 465.867 524.611 466.277 524.803 466.544C525.005 466.8 525.304 466.928 525.699 466.928C525.997 466.928 526.333 466.853 526.707 466.704C527.08 466.555 527.544 466.256 528.099 465.808V460.08H529.411V468H528.179ZM536.588 467.712C535.991 468.011 535.356 468.16 534.684 468.16C534.108 468.16 533.655 468.043 533.324 467.808C533.004 467.573 532.775 467.259 532.636 466.864C532.508 466.469 532.444 466.032 532.444 465.552V461.232H531.068V460.08H532.444V457.872H533.756V460.08H536.348V461.232H533.756V465.504C533.756 466.059 533.847 466.443 534.028 466.656C534.22 466.859 534.513 466.96 534.908 466.96C535.1 466.96 535.297 466.939 535.5 466.896C535.713 466.843 535.943 466.757 536.188 466.64L536.588 467.712ZM539.706 458.144H538.234V456.672H539.706V458.144ZM539.626 468H538.314V460.08H539.626V468ZM548.727 463.552V464.512C548.727 465.643 548.434 466.533 547.847 467.184C547.271 467.835 546.444 468.16 545.367 468.16C544.3 468.16 543.474 467.835 542.887 467.184C542.3 466.533 542.007 465.643 542.007 464.512V463.552C542.007 462.443 542.295 461.563 542.871 460.912C543.458 460.251 544.29 459.92 545.367 459.92C546.444 459.92 547.271 460.251 547.847 460.912C548.434 461.563 548.727 462.443 548.727 463.552ZM547.367 463.552C547.367 462.795 547.196 462.203 546.855 461.776C546.514 461.339 546.018 461.12 545.367 461.12C544.727 461.12 544.231 461.339 543.879 461.776C543.538 462.203 543.367 462.795 543.367 463.552V464.512C543.367 465.301 543.538 465.909 543.879 466.336C544.231 466.763 544.727 466.976 545.367 466.976C546.018 466.976 546.514 466.763 546.855 466.336C547.196 465.909 547.367 465.301 547.367 464.512V463.552ZM554.919 461.152C554.62 461.152 554.268 461.227 553.863 461.376C553.468 461.525 552.988 461.829 552.423 462.288V468H551.111V460.08H552.359V461.184C552.924 460.704 553.436 460.373 553.895 460.192C554.364 460.011 554.812 459.92 555.239 459.92C555.975 459.92 556.535 460.155 556.919 460.624C557.314 461.083 557.511 461.739 557.511 462.592V468H556.199V462.784C556.199 461.696 555.772 461.152 554.919 461.152ZM564.664 463.568V464.512C564.664 465.323 564.813 465.936 565.112 466.352C565.411 466.757 565.885 466.96 566.536 466.96C567.176 466.96 567.864 466.795 568.6 466.464L569 467.568C568.125 467.963 567.277 468.16 566.456 468.16C565.432 468.16 564.653 467.835 564.12 467.184C563.587 466.533 563.32 465.643 563.32 464.512V463.568C563.32 462.437 563.587 461.547 564.12 460.896C564.653 460.245 565.432 459.92 566.456 459.92C566.84 459.92 567.235 459.973 567.64 460.08C568.056 460.176 568.472 460.315 568.888 460.496L568.488 461.616C568.136 461.467 567.795 461.349 567.464 461.264C567.144 461.179 566.835 461.136 566.536 461.136C565.885 461.136 565.411 461.344 565.112 461.76C564.813 462.165 564.664 462.768 564.664 463.568ZM577.164 463.552V464.512C577.164 465.643 576.871 466.533 576.284 467.184C575.708 467.835 574.882 468.16 573.804 468.16C572.738 468.16 571.911 467.835 571.324 467.184C570.738 466.533 570.444 465.643 570.444 464.512V463.552C570.444 462.443 570.732 461.563 571.308 460.912C571.895 460.251 572.727 459.92 573.804 459.92C574.882 459.92 575.708 460.251 576.284 460.912C576.871 461.563 577.164 462.443 577.164 463.552ZM575.804 463.552C575.804 462.795 575.634 462.203 575.292 461.776C574.951 461.339 574.455 461.12 573.804 461.12C573.164 461.12 572.668 461.339 572.316 461.776C571.975 462.203 571.804 462.795 571.804 463.552V464.512C571.804 465.301 571.975 465.909 572.316 466.336C572.668 466.763 573.164 466.976 573.804 466.976C574.455 466.976 574.951 466.763 575.292 466.336C575.634 465.909 575.804 465.301 575.804 464.512V463.552ZM581.485 466.992C582.551 466.992 583.085 466.629 583.085 465.904C583.085 465.595 582.989 465.349 582.797 465.168C582.605 464.987 582.253 464.832 581.741 464.704L580.861 464.48C580.21 464.32 579.725 464.043 579.405 463.648C579.085 463.243 578.925 462.763 578.925 462.208C578.925 461.803 579.015 461.429 579.197 461.088C579.378 460.736 579.666 460.453 580.061 460.24C580.455 460.027 580.967 459.92 581.597 459.92C582.002 459.92 582.413 459.968 582.829 460.064C583.255 460.149 583.687 460.299 584.125 460.512L583.709 461.616C582.93 461.264 582.226 461.088 581.597 461.088C580.669 461.088 580.205 461.435 580.205 462.128C580.205 462.395 580.29 462.624 580.461 462.816C580.631 463.008 580.951 463.163 581.421 463.28L582.301 463.504C583.005 463.675 583.522 463.952 583.853 464.336C584.183 464.72 584.349 465.216 584.349 465.824C584.349 466.261 584.253 466.661 584.061 467.024C583.879 467.376 583.581 467.653 583.165 467.856C582.759 468.059 582.21 468.16 581.517 468.16C581.058 468.16 580.599 468.112 580.141 468.016C579.693 467.92 579.229 467.765 578.749 467.552L579.101 466.464C579.559 466.645 579.975 466.779 580.349 466.864C580.722 466.949 581.101 466.992 581.485 466.992ZM590.791 467.712C590.194 468.011 589.559 468.16 588.887 468.16C588.311 468.16 587.858 468.043 587.527 467.808C587.207 467.573 586.978 467.259 586.839 466.864C586.711 466.469 586.647 466.032 586.647 465.552V461.232H585.271V460.08H586.647V457.872H587.959V460.08H590.551V461.232H587.959V465.504C587.959 466.059 588.05 466.443 588.231 466.656C588.423 466.859 588.717 466.96 589.111 466.96C589.303 466.96 589.501 466.939 589.703 466.896C589.917 466.843 590.146 466.757 590.391 466.64L590.791 467.712ZM594.453 466.992C595.52 466.992 596.053 466.629 596.053 465.904C596.053 465.595 595.957 465.349 595.765 465.168C595.573 464.987 595.221 464.832 594.709 464.704L593.829 464.48C593.179 464.32 592.693 464.043 592.373 463.648C592.053 463.243 591.893 462.763 591.893 462.208C591.893 461.803 591.984 461.429 592.165 461.088C592.347 460.736 592.635 460.453 593.029 460.24C593.424 460.027 593.936 459.92 594.565 459.92C594.971 459.92 595.381 459.968 595.797 460.064C596.224 460.149 596.656 460.299 597.093 460.512L596.677 461.616C595.899 461.264 595.195 461.088 594.565 461.088C593.637 461.088 593.173 461.435 593.173 462.128C593.173 462.395 593.259 462.624 593.429 462.816C593.6 463.008 593.92 463.163 594.389 463.28L595.269 463.504C595.973 463.675 596.491 463.952 596.821 464.336C597.152 464.72 597.317 465.216 597.317 465.824C597.317 466.261 597.221 466.661 597.029 467.024C596.848 467.376 596.549 467.653 596.133 467.856C595.728 468.059 595.179 468.16 594.485 468.16C594.027 468.16 593.568 468.112 593.109 468.016C592.661 467.92 592.197 467.765 591.717 467.552L592.069 466.464C592.528 466.645 592.944 466.779 593.317 466.864C593.691 466.949 594.069 466.992 594.453 466.992Z" fill="black"/>
<path d="M128.889 245.624L131.481 244.12H132.745V255H131.385V245.592L129.497 246.68L128.889 245.624ZM142.381 252.136C142.381 252.701 142.253 253.213 141.997 253.672C141.751 254.131 141.367 254.493 140.845 254.76C140.322 255.027 139.65 255.16 138.829 255.16C138.039 255.16 137.394 255.032 136.893 254.776C136.391 254.52 136.023 254.184 135.789 253.768C135.554 253.341 135.437 252.867 135.437 252.344C135.437 251.779 135.575 251.267 135.853 250.808C136.13 250.339 136.578 249.907 137.197 249.512C136.706 249.235 136.327 248.883 136.061 248.456C135.794 248.029 135.661 247.507 135.661 246.888C135.661 246.376 135.778 245.901 136.013 245.464C136.247 245.016 136.605 244.653 137.085 244.376C137.565 244.099 138.162 243.96 138.877 243.96C139.613 243.96 140.221 244.088 140.701 244.344C141.191 244.6 141.554 244.941 141.789 245.368C142.023 245.795 142.141 246.275 142.141 246.808C142.141 247.331 142.018 247.805 141.773 248.232C141.538 248.659 141.143 249.059 140.589 249.432C141.175 249.72 141.618 250.077 141.917 250.504C142.226 250.931 142.381 251.475 142.381 252.136ZM138.653 248.712L139.533 249.016C140.013 248.643 140.338 248.291 140.509 247.96C140.69 247.629 140.781 247.288 140.781 246.936C140.781 246.403 140.626 245.976 140.317 245.656C140.007 245.336 139.538 245.176 138.909 245.176C138.354 245.176 137.901 245.32 137.549 245.608C137.197 245.896 137.021 246.323 137.021 246.888C137.021 247.336 137.143 247.704 137.389 247.992C137.645 248.269 138.066 248.509 138.653 248.712ZM136.797 252.168C136.797 252.712 136.967 253.149 137.309 253.48C137.661 253.8 138.183 253.96 138.877 253.96C139.549 253.96 140.071 253.811 140.445 253.512C140.829 253.203 141.021 252.765 141.021 252.2C141.021 251.709 140.882 251.331 140.605 251.064C140.338 250.787 139.863 250.531 139.181 250.296L138.253 249.976C137.709 250.371 137.33 250.744 137.117 251.096C136.903 251.437 136.797 251.795 136.797 252.168ZM151.062 252.392H149.862V255H148.55V252.392H143.878V251.32C144.7 250.072 145.441 248.856 146.102 247.672C146.774 246.488 147.329 245.304 147.766 244.12H149.238C148.79 245.283 148.246 246.44 147.606 247.592C146.977 248.744 146.252 249.933 145.43 251.16H148.55V249.176H149.862V251.16H151.062V252.392ZM160.544 248.232H157.952V255H156.64V248.232H155.264V247.08H156.64V245.768C156.64 245.277 156.72 244.824 156.88 244.408C157.05 243.981 157.322 243.64 157.696 243.384C158.069 243.128 158.565 243 159.184 243C159.493 243 159.818 243.037 160.16 243.112C160.512 243.176 160.837 243.277 161.136 243.416L160.768 244.52C160.224 244.307 159.749 244.2 159.344 244.2C158.896 244.2 158.549 244.323 158.304 244.568C158.069 244.813 157.952 245.208 157.952 245.752V247.08H160.544V248.232ZM167.77 255.08C167.279 255.08 166.884 254.968 166.586 254.744C166.298 254.52 166.095 254.243 165.978 253.912C165.455 254.371 164.98 254.696 164.554 254.888C164.127 255.069 163.7 255.16 163.274 255.16C162.58 255.16 162.068 254.936 161.738 254.488C161.407 254.04 161.242 253.491 161.242 252.84C161.242 252.403 161.322 252.013 161.482 251.672C161.642 251.331 161.914 251.064 162.298 250.872C162.682 250.669 163.199 250.568 163.85 250.568C164.138 250.568 164.452 250.589 164.794 250.632C165.135 250.664 165.482 250.707 165.834 250.76V249.688C165.834 249.091 165.7 248.685 165.434 248.472C165.178 248.248 164.799 248.136 164.298 248.136C163.615 248.136 162.852 248.323 162.01 248.696L161.594 247.608C162.084 247.384 162.554 247.213 163.002 247.096C163.45 246.979 163.903 246.92 164.362 246.92C165.108 246.92 165.679 247.043 166.074 247.288C166.468 247.533 166.74 247.859 166.89 248.264C167.039 248.669 167.114 249.112 167.114 249.592V253.016C167.114 253.261 167.162 253.469 167.258 253.64C167.354 253.8 167.546 253.88 167.834 253.88H168.01V255.08H167.77ZM162.538 252.824C162.538 253.187 162.623 253.48 162.794 253.704C162.964 253.928 163.21 254.04 163.53 254.04C163.807 254.04 164.127 253.96 164.49 253.8C164.852 253.629 165.3 253.293 165.834 252.792V251.784C165.108 251.667 164.468 251.608 163.914 251.608C163.423 251.608 163.071 251.709 162.858 251.912C162.644 252.115 162.538 252.419 162.538 252.824ZM170.796 250.568V251.512C170.796 252.323 170.946 252.936 171.244 253.352C171.543 253.757 172.018 253.96 172.668 253.96C173.308 253.96 173.996 253.795 174.732 253.464L175.132 254.568C174.258 254.963 173.41 255.16 172.588 255.16C171.564 255.16 170.786 254.835 170.252 254.184C169.719 253.533 169.452 252.643 169.452 251.512V250.568C169.452 249.437 169.719 248.547 170.252 247.896C170.786 247.245 171.564 246.92 172.588 246.92C172.972 246.92 173.367 246.973 173.772 247.08C174.188 247.176 174.604 247.315 175.02 247.496L174.62 248.616C174.268 248.467 173.927 248.349 173.596 248.264C173.276 248.179 172.967 248.136 172.668 248.136C172.018 248.136 171.543 248.344 171.244 248.76C170.946 249.165 170.796 249.768 170.796 250.568ZM178.448 245.144H176.976V243.672H178.448V245.144ZM178.368 255H177.056V247.08H178.368V255ZM181.18 253.08V243.16H182.492V253.016C182.492 253.304 182.535 253.523 182.62 253.672C182.716 253.811 182.903 253.88 183.18 253.88H183.436V255.08H183.068C182.364 255.08 181.874 254.893 181.596 254.52C181.319 254.147 181.18 253.667 181.18 253.08ZM186.807 245.144H185.335V243.672H186.807V245.144ZM186.727 255H185.415V247.08H186.727V255ZM193.908 254.712C193.31 255.011 192.676 255.16 192.004 255.16C191.428 255.16 190.974 255.043 190.644 254.808C190.324 254.573 190.094 254.259 189.956 253.864C189.828 253.469 189.764 253.032 189.764 252.552V248.232H188.388V247.08H189.764V244.872H191.076V247.08H193.668V248.232H191.076V252.504C191.076 253.059 191.166 253.443 191.348 253.656C191.54 253.859 191.833 253.96 192.228 253.96C192.42 253.96 192.617 253.939 192.82 253.896C193.033 253.843 193.262 253.757 193.508 253.64L193.908 254.712ZM197.026 245.144H195.554V243.672H197.026V245.144ZM196.946 255H195.634V247.08H196.946V255ZM205.518 254.536C205.038 254.771 204.558 254.931 204.078 255.016C203.598 255.112 203.156 255.16 202.75 255.16C201.609 255.16 200.756 254.835 200.19 254.184C199.636 253.533 199.358 252.643 199.358 251.512V250.552C199.358 249.453 199.636 248.573 200.19 247.912C200.756 247.251 201.55 246.92 202.574 246.92C203.118 246.92 203.614 247.032 204.062 247.256C204.521 247.469 204.884 247.8 205.15 248.248C205.428 248.685 205.566 249.251 205.566 249.944C205.566 250.392 205.502 250.904 205.374 251.48H200.654V251.512C200.654 252.323 200.82 252.936 201.15 253.352C201.492 253.768 202.036 253.976 202.782 253.976C203.124 253.976 203.497 253.933 203.902 253.848C204.318 253.763 204.724 253.629 205.118 253.448L205.518 254.536ZM202.574 248.072C201.956 248.072 201.486 248.275 201.166 248.68C200.857 249.075 200.686 249.635 200.654 250.36H204.238C204.27 250.168 204.286 249.987 204.286 249.816C204.286 249.219 204.116 248.781 203.774 248.504C203.444 248.216 203.044 248.072 202.574 248.072ZM209.773 253.992C210.84 253.992 211.373 253.629 211.373 252.904C211.373 252.595 211.277 252.349 211.085 252.168C210.893 251.987 210.541 251.832 210.029 251.704L209.149 251.48C208.498 251.32 208.013 251.043 207.693 250.648C207.373 250.243 207.213 249.763 207.213 249.208C207.213 248.803 207.304 248.429 207.485 248.088C207.666 247.736 207.954 247.453 208.349 247.24C208.744 247.027 209.256 246.92 209.885 246.92C210.29 246.92 210.701 246.968 211.117 247.064C211.544 247.149 211.976 247.299 212.413 247.512L211.997 248.616C211.218 248.264 210.514 248.088 209.885 248.088C208.957 248.088 208.493 248.435 208.493 249.128C208.493 249.395 208.578 249.624 208.749 249.816C208.92 250.008 209.24 250.163 209.709 250.28L210.589 250.504C211.293 250.675 211.81 250.952 212.141 251.336C212.472 251.72 212.637 252.216 212.637 252.824C212.637 253.261 212.541 253.661 212.349 254.024C212.168 254.376 211.869 254.653 211.453 254.856C211.048 255.059 210.498 255.16 209.805 255.16C209.346 255.16 208.888 255.112 208.429 255.016C207.981 254.92 207.517 254.765 207.037 254.552L207.389 253.464C207.848 253.645 208.264 253.779 208.637 253.864C209.01 253.949 209.389 253.992 209.773 253.992ZM224.004 255.08C223.513 255.08 223.119 254.968 222.82 254.744C222.532 254.52 222.329 254.243 222.212 253.912C221.689 254.371 221.215 254.696 220.788 254.888C220.361 255.069 219.935 255.16 219.508 255.16C218.815 255.16 218.303 254.936 217.972 254.488C217.641 254.04 217.476 253.491 217.476 252.84C217.476 252.403 217.556 252.013 217.716 251.672C217.876 251.331 218.148 251.064 218.532 250.872C218.916 250.669 219.433 250.568 220.084 250.568C220.372 250.568 220.687 250.589 221.028 250.632C221.369 250.664 221.716 250.707 222.068 250.76V249.688C222.068 249.091 221.935 248.685 221.668 248.472C221.412 248.248 221.033 248.136 220.532 248.136C219.849 248.136 219.087 248.323 218.244 248.696L217.828 247.608C218.319 247.384 218.788 247.213 219.236 247.096C219.684 246.979 220.137 246.92 220.596 246.92C221.343 246.92 221.913 247.043 222.308 247.288C222.703 247.533 222.975 247.859 223.124 248.264C223.273 248.669 223.348 249.112 223.348 249.592V253.016C223.348 253.261 223.396 253.469 223.492 253.64C223.588 253.8 223.78 253.88 224.068 253.88H224.244V255.08H224.004ZM218.772 252.824C218.772 253.187 218.857 253.48 219.028 253.704C219.199 253.928 219.444 254.04 219.764 254.04C220.041 254.04 220.361 253.96 220.724 253.8C221.087 253.629 221.535 253.293 222.068 252.792V251.784C221.343 251.667 220.703 251.608 220.148 251.608C219.657 251.608 219.305 251.709 219.092 251.912C218.879 252.115 218.772 252.419 218.772 252.824ZM230.263 248.232C229.783 248.232 229.313 248.317 228.855 248.488C228.407 248.659 227.927 248.984 227.415 249.464V255H226.103V247.08H227.351V248.36C227.895 247.827 228.391 247.453 228.839 247.24C229.297 247.027 229.772 246.92 230.263 246.92V248.232ZM237.722 254.536C237.242 254.771 236.762 254.931 236.282 255.016C235.802 255.112 235.359 255.16 234.954 255.16C233.812 255.16 232.959 254.835 232.394 254.184C231.839 253.533 231.562 252.643 231.562 251.512V250.552C231.562 249.453 231.839 248.573 232.394 247.912C232.959 247.251 233.754 246.92 234.778 246.92C235.322 246.92 235.818 247.032 236.266 247.256C236.724 247.469 237.087 247.8 237.354 248.248C237.631 248.685 237.77 249.251 237.77 249.944C237.77 250.392 237.706 250.904 237.578 251.48H232.858V251.512C232.858 252.323 233.023 252.936 233.354 253.352C233.695 253.768 234.239 253.976 234.986 253.976C235.327 253.976 235.7 253.933 236.106 253.848C236.522 253.763 236.927 253.629 237.322 253.448L237.722 254.536ZM234.778 248.072C234.159 248.072 233.69 248.275 233.37 248.68C233.06 249.075 232.89 249.635 232.858 250.36H236.442C236.474 250.168 236.49 249.987 236.49 249.816C236.49 249.219 236.319 248.781 235.978 248.504C235.647 248.216 235.247 248.072 234.778 248.072ZM247.684 248.232C247.204 248.232 246.735 248.317 246.276 248.488C245.828 248.659 245.348 248.984 244.836 249.464V255H243.524V247.08H244.772V248.36C245.316 247.827 245.812 247.453 246.26 247.24C246.719 247.027 247.194 246.92 247.684 246.92V248.232ZM255.143 254.536C254.663 254.771 254.183 254.931 253.703 255.016C253.223 255.112 252.781 255.16 252.375 255.16C251.234 255.16 250.381 254.835 249.815 254.184C249.261 253.533 248.983 252.643 248.983 251.512V250.552C248.983 249.453 249.261 248.573 249.815 247.912C250.381 247.251 251.175 246.92 252.199 246.92C252.743 246.92 253.239 247.032 253.687 247.256C254.146 247.469 254.509 247.8 254.775 248.248C255.053 248.685 255.191 249.251 255.191 249.944C255.191 250.392 255.127 250.904 254.999 251.48H250.279V251.512C250.279 252.323 250.445 252.936 250.775 253.352C251.117 253.768 251.661 253.976 252.407 253.976C252.749 253.976 253.122 253.933 253.527 253.848C253.943 253.763 254.349 253.629 254.743 253.448L255.143 254.536ZM252.199 248.072C251.581 248.072 251.111 248.275 250.791 248.68C250.482 249.075 250.311 249.635 250.279 250.36H253.863C253.895 250.168 253.911 249.987 253.911 249.816C253.911 249.219 253.741 248.781 253.399 248.504C253.069 248.216 252.669 248.072 252.199 248.072ZM259.398 253.992C260.465 253.992 260.998 253.629 260.998 252.904C260.998 252.595 260.902 252.349 260.71 252.168C260.518 251.987 260.166 251.832 259.654 251.704L258.774 251.48C258.123 251.32 257.638 251.043 257.318 250.648C256.998 250.243 256.838 249.763 256.838 249.208C256.838 248.803 256.929 248.429 257.11 248.088C257.291 247.736 257.579 247.453 257.974 247.24C258.369 247.027 258.881 246.92 259.51 246.92C259.915 246.92 260.326 246.968 260.742 247.064C261.169 247.149 261.601 247.299 262.038 247.512L261.622 248.616C260.843 248.264 260.139 248.088 259.51 248.088C258.582 248.088 258.118 248.435 258.118 249.128C258.118 249.395 258.203 249.624 258.374 249.816C258.545 250.008 258.865 250.163 259.334 250.28L260.214 250.504C260.918 250.675 261.435 250.952 261.766 251.336C262.097 251.72 262.262 252.216 262.262 252.824C262.262 253.261 262.166 253.661 261.974 254.024C261.793 254.376 261.494 254.653 261.078 254.856C260.673 255.059 260.123 255.16 259.43 255.16C258.971 255.16 258.513 255.112 258.054 255.016C257.606 254.92 257.142 254.765 256.662 254.552L257.014 253.464C257.473 253.645 257.889 253.779 258.262 253.864C258.635 253.949 259.014 253.992 259.398 253.992ZM267.521 255.16C266.923 255.16 266.305 255.037 265.665 254.792V258.408H264.353V247.08H265.601V248.2C266.091 247.731 266.539 247.4 266.945 247.208C267.35 247.016 267.766 246.92 268.193 246.92C269.035 246.92 269.681 247.24 270.129 247.88C270.587 248.52 270.817 249.421 270.817 250.584V251.512C270.817 252.621 270.534 253.507 269.969 254.168C269.414 254.829 268.598 255.16 267.521 255.16ZM267.873 248.152C267.563 248.152 267.243 248.232 266.913 248.392C266.582 248.552 266.166 248.877 265.665 249.368V253.592C265.974 253.731 266.273 253.832 266.561 253.896C266.849 253.949 267.131 253.976 267.409 253.976C268.134 253.976 268.657 253.757 268.977 253.32C269.297 252.872 269.457 252.269 269.457 251.512V250.584C269.457 249.752 269.323 249.139 269.057 248.744C268.801 248.349 268.406 248.152 267.873 248.152ZM279.515 250.552V251.512C279.515 252.643 279.222 253.533 278.635 254.184C278.059 254.835 277.233 255.16 276.155 255.16C275.089 255.16 274.262 254.835 273.675 254.184C273.089 253.533 272.795 252.643 272.795 251.512V250.552C272.795 249.443 273.083 248.563 273.659 247.912C274.246 247.251 275.078 246.92 276.155 246.92C277.233 246.92 278.059 247.251 278.635 247.912C279.222 248.563 279.515 249.443 279.515 250.552ZM278.155 250.552C278.155 249.795 277.985 249.203 277.643 248.776C277.302 248.339 276.806 248.12 276.155 248.12C275.515 248.12 275.019 248.339 274.667 248.776C274.326 249.203 274.155 249.795 274.155 250.552V251.512C274.155 252.301 274.326 252.909 274.667 253.336C275.019 253.763 275.515 253.976 276.155 253.976C276.806 253.976 277.302 253.763 277.643 253.336C277.985 252.909 278.155 252.301 278.155 251.512V250.552ZM285.707 248.152C285.409 248.152 285.057 248.227 284.651 248.376C284.257 248.525 283.777 248.829 283.211 249.288V255H281.899V247.08H283.147V248.184C283.713 247.704 284.225 247.373 284.683 247.192C285.153 247.011 285.601 246.92 286.027 246.92C286.763 246.92 287.323 247.155 287.707 247.624C288.102 248.083 288.299 248.739 288.299 249.592V255H286.987V249.784C286.987 248.696 286.561 248.152 285.707 248.152ZM292.976 253.992C294.043 253.992 294.576 253.629 294.576 252.904C294.576 252.595 294.48 252.349 294.288 252.168C294.096 251.987 293.744 251.832 293.232 251.704L292.352 251.48C291.701 251.32 291.216 251.043 290.896 250.648C290.576 250.243 290.416 249.763 290.416 249.208C290.416 248.803 290.507 248.429 290.688 248.088C290.869 247.736 291.157 247.453 291.552 247.24C291.947 247.027 292.459 246.92 293.088 246.92C293.493 246.92 293.904 246.968 294.32 247.064C294.747 247.149 295.179 247.299 295.616 247.512L295.2 248.616C294.421 248.264 293.717 248.088 293.088 248.088C292.16 248.088 291.696 248.435 291.696 249.128C291.696 249.395 291.781 249.624 291.952 249.816C292.123 250.008 292.443 250.163 292.912 250.28L293.792 250.504C294.496 250.675 295.013 250.952 295.344 251.336C295.675 251.72 295.84 252.216 295.84 252.824C295.84 253.261 295.744 253.661 295.552 254.024C295.371 254.376 295.072 254.653 294.656 254.856C294.251 255.059 293.701 255.16 293.008 255.16C292.549 255.16 292.091 255.112 291.632 255.016C291.184 254.92 290.72 254.765 290.24 254.552L290.592 253.464C291.051 253.645 291.467 253.779 291.84 253.864C292.213 253.949 292.592 253.992 292.976 253.992ZM299.323 245.144H297.851V243.672H299.323V245.144ZM299.243 255H297.931V247.08H299.243V255ZM308.471 251.512C308.471 252.621 308.194 253.507 307.639 254.168C307.085 254.829 306.269 255.16 305.191 255.16C304.125 255.16 303.069 254.877 302.023 254.312V243.16H303.335V248.152C303.815 247.704 304.253 247.389 304.647 247.208C305.053 247.016 305.463 246.92 305.879 246.92C306.711 246.92 307.351 247.24 307.799 247.88C308.247 248.52 308.471 249.421 308.471 250.584V251.512ZM305.559 248.152C305.261 248.152 304.941 248.232 304.599 248.392C304.269 248.552 303.847 248.883 303.335 249.384V253.576C303.965 253.843 304.557 253.976 305.111 253.976C305.826 253.976 306.338 253.757 306.647 253.32C306.957 252.872 307.111 252.269 307.111 251.512V250.584C307.111 249.752 306.983 249.139 306.727 248.744C306.471 248.349 306.082 248.152 305.559 248.152ZM310.883 253.08V243.16H312.195V253.016C312.195 253.304 312.238 253.523 312.323 253.672C312.419 253.811 312.606 253.88 312.883 253.88H313.139V255.08H312.771C312.067 255.08 311.577 254.893 311.299 254.52C311.022 254.147 310.883 253.667 310.883 253.08ZM320.862 254.536C320.382 254.771 319.902 254.931 319.422 255.016C318.942 255.112 318.5 255.16 318.094 255.16C316.953 255.16 316.1 254.835 315.534 254.184C314.98 253.533 314.702 252.643 314.702 251.512V250.552C314.702 249.453 314.98 248.573 315.534 247.912C316.1 247.251 316.894 246.92 317.918 246.92C318.462 246.92 318.958 247.032 319.406 247.256C319.865 247.469 320.228 247.8 320.494 248.248C320.772 248.685 320.91 249.251 320.91 249.944C320.91 250.392 320.846 250.904 320.718 251.48H315.998V251.512C315.998 252.323 316.164 252.936 316.494 253.352C316.836 253.768 317.38 253.976 318.126 253.976C318.468 253.976 318.841 253.933 319.246 253.848C319.662 253.763 320.068 253.629 320.462 253.448L320.862 254.536ZM317.918 248.072C317.3 248.072 316.83 248.275 316.51 248.68C316.201 249.075 316.03 249.635 315.998 250.36H319.582C319.614 250.168 319.63 249.987 319.63 249.816C319.63 249.219 319.46 248.781 319.118 248.504C318.788 248.216 318.388 248.072 317.918 248.072ZM330.825 248.232H328.233V255H326.921V248.232H325.545V247.08H326.921V245.768C326.921 245.277 327.001 244.824 327.161 244.408C327.332 243.981 327.604 243.64 327.977 243.384C328.35 243.128 328.846 243 329.465 243C329.774 243 330.1 243.037 330.441 243.112C330.793 243.176 331.118 243.277 331.417 243.416L331.049 244.52C330.505 244.307 330.03 244.2 329.625 244.2C329.177 244.2 328.83 244.323 328.585 244.568C328.35 244.813 328.233 245.208 328.233 245.752V247.08H330.825V248.232ZM338.531 250.552V251.512C338.531 252.643 338.237 253.533 337.651 254.184C337.075 254.835 336.248 255.16 335.171 255.16C334.104 255.16 333.277 254.835 332.691 254.184C332.104 253.533 331.811 252.643 331.811 251.512V250.552C331.811 249.443 332.099 248.563 332.675 247.912C333.261 247.251 334.093 246.92 335.171 246.92C336.248 246.92 337.075 247.251 337.651 247.912C338.237 248.563 338.531 249.443 338.531 250.552ZM337.171 250.552C337.171 249.795 337 249.203 336.659 248.776C336.317 248.339 335.821 248.12 335.171 248.12C334.531 248.12 334.035 248.339 333.683 248.776C333.341 249.203 333.171 249.795 333.171 250.552V251.512C333.171 252.301 333.341 252.909 333.683 253.336C334.035 253.763 334.531 253.976 335.171 253.976C335.821 253.976 336.317 253.763 336.659 253.336C337 252.909 337.171 252.301 337.171 251.512V250.552ZM345.075 248.232C344.595 248.232 344.126 248.317 343.667 248.488C343.219 248.659 342.739 248.984 342.227 249.464V255H340.915V247.08H342.163V248.36C342.707 247.827 343.203 247.453 343.651 247.24C344.11 247.027 344.584 246.92 345.075 246.92V248.232ZM349.026 245.672L351.794 244.12H353.394V255H351.506V246.232L349.874 247.128L349.026 245.672ZM355.97 249.384L356.29 244.12H361.858V245.928H357.986L357.842 248.328C358.215 248.232 358.615 248.184 359.042 248.184C360.098 248.184 360.924 248.461 361.522 249.016C362.119 249.56 362.418 250.365 362.418 251.432V251.864C362.418 252.461 362.295 253.011 362.05 253.512C361.804 254.013 361.41 254.413 360.866 254.712C360.332 255.011 359.623 255.16 358.738 255.16C358.247 255.16 357.735 255.101 357.202 254.984C356.679 254.867 356.103 254.669 355.474 254.392L356.066 252.744C356.631 252.968 357.106 253.133 357.49 253.24C357.884 253.336 358.279 253.384 358.674 253.384C359.271 253.384 359.719 253.261 360.018 253.016C360.327 252.771 360.482 252.387 360.482 251.864V251.432C360.482 250.963 360.343 250.589 360.066 250.312C359.799 250.035 359.367 249.896 358.77 249.896C358.503 249.896 358.226 249.933 357.938 250.008C357.65 250.072 357.34 250.168 357.01 250.296L355.97 249.384ZM371.915 248.408V250.696C371.915 252.083 371.589 253.176 370.939 253.976C370.288 254.765 369.333 255.16 368.075 255.16C366.816 255.16 365.861 254.765 365.211 253.976C364.56 253.176 364.235 252.083 364.235 250.696V248.408C364.235 247.021 364.56 245.933 365.211 245.144C365.861 244.355 366.816 243.96 368.075 243.96C369.333 243.96 370.288 244.355 370.939 245.144C371.589 245.933 371.915 247.021 371.915 248.408ZM369.979 248.408C369.979 246.627 369.344 245.736 368.075 245.736C367.424 245.736 366.944 245.96 366.635 246.408C366.325 246.856 366.171 247.523 366.171 248.408V250.696C366.171 251.581 366.325 252.253 366.635 252.712C366.944 253.16 367.424 253.384 368.075 253.384C369.344 253.384 369.979 252.488 369.979 250.696V248.408ZM379.267 249.384V255H377.427V246.888H379.171V247.96C379.673 247.523 380.137 247.208 380.563 247.016C380.99 246.824 381.427 246.728 381.875 246.728C382.867 246.728 383.545 247.165 383.907 248.04C384.441 247.571 384.937 247.235 385.395 247.032C385.854 246.829 386.318 246.728 386.787 246.728C387.534 246.728 388.105 246.979 388.499 247.48C388.894 247.971 389.091 248.664 389.091 249.56V255H387.251V249.784C387.251 248.888 386.91 248.44 386.227 248.44C385.961 248.44 385.667 248.504 385.347 248.632C385.027 248.76 384.638 249.011 384.179 249.384V255H382.339V249.784C382.339 248.888 381.998 248.44 381.315 248.44C381.049 248.44 380.755 248.504 380.435 248.632C380.115 248.76 379.726 249.011 379.267 249.384ZM393.409 245.352H391.473V243.448H393.409V245.352ZM393.361 255H391.521V246.888H393.361V255ZM395.848 252.712V243.16H397.688V252.712C397.688 252.872 397.725 253.027 397.8 253.176C397.885 253.315 398.045 253.384 398.28 253.384H398.536V255.08H398.088C397.48 255.08 397.016 254.963 396.696 254.728C396.376 254.493 396.152 254.195 396.024 253.832C395.907 253.469 395.848 253.096 395.848 252.712ZM400.27 252.712V243.16H402.11V252.712C402.11 252.872 402.147 253.027 402.222 253.176C402.307 253.315 402.467 253.384 402.702 253.384H402.958V255.08H402.51C401.902 255.08 401.438 254.963 401.118 254.728C400.798 254.493 400.574 254.195 400.446 253.832C400.329 253.469 400.27 253.096 400.27 252.712ZM406.628 245.352H404.692V243.448H406.628V245.352ZM406.58 255H404.74V246.888H406.58V255ZM415.755 250.456V251.416C415.755 252.547 415.445 253.453 414.827 254.136C414.208 254.819 413.333 255.16 412.203 255.16C411.072 255.16 410.197 254.819 409.579 254.136C408.96 253.453 408.651 252.547 408.651 251.416V250.456C408.651 249.325 408.955 248.424 409.563 247.752C410.181 247.069 411.061 246.728 412.203 246.728C413.344 246.728 414.219 247.069 414.827 247.752C415.445 248.424 415.755 249.325 415.755 250.456ZM413.867 250.456C413.867 249.805 413.723 249.299 413.435 248.936C413.147 248.563 412.736 248.376 412.203 248.376C411.669 248.376 411.259 248.563 410.971 248.936C410.683 249.299 410.539 249.805 410.539 250.456V251.416C410.539 252.067 410.683 252.579 410.971 252.952C411.259 253.325 411.669 253.512 412.203 253.512C412.736 253.512 413.147 253.325 413.435 252.952C413.723 252.579 413.867 252.067 413.867 251.416V250.456ZM421.786 248.44C421.519 248.44 421.215 248.504 420.874 248.632C420.533 248.76 420.127 249.011 419.658 249.384V255H417.818V246.888H419.562V247.976C420.063 247.539 420.538 247.224 420.986 247.032C421.434 246.829 421.887 246.728 422.346 246.728C423.125 246.728 423.717 246.979 424.122 247.48C424.527 247.971 424.73 248.664 424.73 249.56V255H422.89V249.784C422.89 248.888 422.522 248.44 421.786 248.44ZM436.525 254.536C435.97 254.76 435.447 254.92 434.957 255.016C434.466 255.112 434.002 255.16 433.565 255.16C432.359 255.16 431.447 254.819 430.829 254.136C430.21 253.453 429.901 252.547 429.901 251.416V250.456C429.901 249.699 430.039 249.043 430.317 248.488C430.594 247.933 430.989 247.501 431.501 247.192C432.013 246.883 432.615 246.728 433.309 246.728C433.874 246.728 434.402 246.845 434.893 247.08C435.394 247.304 435.799 247.661 436.109 248.152C436.429 248.632 436.589 249.251 436.589 250.008C436.589 250.232 436.573 250.472 436.541 250.728C436.509 250.973 436.455 251.235 436.381 251.512H431.677C431.698 252.173 431.863 252.669 432.173 253C432.482 253.331 432.978 253.496 433.661 253.496C434.023 253.496 434.397 253.453 434.781 253.368C435.175 253.283 435.581 253.155 435.997 252.984L436.525 254.536ZM433.309 248.28C432.818 248.28 432.434 248.44 432.157 248.76C431.89 249.069 431.735 249.517 431.693 250.104H434.765C434.775 250.051 434.781 250.003 434.781 249.96C434.781 249.907 434.781 249.859 434.781 249.816C434.781 249.304 434.637 248.92 434.349 248.664C434.061 248.408 433.714 248.28 433.309 248.28ZM443.541 255V253.928C443.05 254.355 442.591 254.669 442.165 254.872C441.738 255.064 441.306 255.16 440.869 255.16C440.143 255.16 439.583 254.915 439.189 254.424C438.794 253.923 438.597 253.224 438.597 252.328V246.888H440.437V252.104C440.437 253 440.767 253.448 441.429 253.448C441.695 253.448 441.983 253.384 442.293 253.256C442.613 253.128 442.997 252.883 443.445 252.52V246.888H445.285V255H443.541ZM452.394 248.568C451.893 248.568 451.413 248.648 450.954 248.808C450.506 248.957 450.074 249.203 449.658 249.544V255H447.818V246.888H449.562V248.136C450.106 247.624 450.591 247.261 451.018 247.048C451.445 246.835 451.903 246.728 452.394 246.728V248.568ZM460.645 250.456V251.416C460.645 252.547 460.336 253.453 459.717 254.136C459.099 254.819 458.224 255.16 457.093 255.16C455.963 255.16 455.088 254.819 454.469 254.136C453.851 253.453 453.541 252.547 453.541 251.416V250.456C453.541 249.325 453.845 248.424 454.453 247.752C455.072 247.069 455.952 246.728 457.093 246.728C458.235 246.728 459.109 247.069 459.717 247.752C460.336 248.424 460.645 249.325 460.645 250.456ZM458.757 250.456C458.757 249.805 458.613 249.299 458.325 248.936C458.037 248.563 457.627 248.376 457.093 248.376C456.56 248.376 456.149 248.563 455.861 248.936C455.573 249.299 455.429 249.805 455.429 250.456V251.416C455.429 252.067 455.573 252.579 455.861 252.952C456.149 253.325 456.56 253.512 457.093 253.512C457.627 253.512 458.037 253.325 458.325 252.952C458.613 252.579 458.757 252.067 458.757 251.416V250.456ZM464.981 253.56C465.375 253.56 465.701 253.496 465.957 253.368C466.213 253.229 466.341 253.027 466.341 252.76C466.341 252.525 466.255 252.344 466.085 252.216C465.925 252.077 465.631 251.955 465.205 251.848L464.293 251.608C463.589 251.427 463.066 251.123 462.725 250.696C462.394 250.269 462.229 249.763 462.229 249.176C462.229 248.483 462.469 247.901 462.949 247.432C463.429 246.963 464.17 246.728 465.173 246.728C465.578 246.728 466.005 246.776 466.453 246.872C466.901 246.968 467.37 247.123 467.861 247.336L467.333 248.904C466.885 248.691 466.479 248.541 466.117 248.456C465.754 248.371 465.434 248.328 465.157 248.328C464.399 248.328 464.021 248.584 464.021 249.096C464.021 249.299 464.085 249.459 464.213 249.576C464.351 249.693 464.602 249.8 464.965 249.896L465.877 250.136C466.655 250.339 467.221 250.648 467.573 251.064C467.935 251.48 468.117 252.003 468.117 252.632C468.117 253.379 467.861 253.987 467.349 254.456C466.847 254.925 466.053 255.16 464.965 255.16C464.037 255.16 463.061 254.947 462.037 254.52L462.533 253C463.034 253.203 463.487 253.347 463.893 253.432C464.298 253.517 464.661 253.56 464.981 253.56ZM475.026 245.144H473.554V243.672H475.026V245.144ZM474.946 255H473.634V247.08H474.946V255ZM481.582 248.152C481.284 248.152 480.932 248.227 480.526 248.376C480.132 248.525 479.652 248.829 479.086 249.288V255H477.774V247.08H479.022V248.184C479.588 247.704 480.1 247.373 480.558 247.192C481.028 247.011 481.476 246.92 481.902 246.92C482.638 246.92 483.198 247.155 483.582 247.624C483.977 248.083 484.174 248.739 484.174 249.592V255H482.862V249.784C482.862 248.696 482.436 248.152 481.582 248.152ZM493.567 255.16C492.97 255.16 492.351 255.037 491.711 254.792V258.408H490.399V247.08H491.647V248.2C492.138 247.731 492.586 247.4 492.991 247.208C493.397 247.016 493.813 246.92 494.239 246.92C495.082 246.92 495.727 247.24 496.175 247.88C496.634 248.52 496.863 249.421 496.863 250.584V251.512C496.863 252.621 496.581 253.507 496.015 254.168C495.461 254.829 494.645 255.16 493.567 255.16ZM493.919 248.152C493.61 248.152 493.29 248.232 492.959 248.392C492.629 248.552 492.213 248.877 491.711 249.368V253.592C492.021 253.731 492.319 253.832 492.607 253.896C492.895 253.949 493.178 253.976 493.455 253.976C494.181 253.976 494.703 253.757 495.023 253.32C495.343 252.872 495.503 252.269 495.503 251.512V250.584C495.503 249.752 495.37 249.139 495.103 248.744C494.847 248.349 494.453 248.152 493.919 248.152ZM505.562 250.552V251.512C505.562 252.643 505.269 253.533 504.682 254.184C504.106 254.835 503.279 255.16 502.202 255.16C501.135 255.16 500.309 254.835 499.722 254.184C499.135 253.533 498.842 252.643 498.842 251.512V250.552C498.842 249.443 499.13 248.563 499.706 247.912C500.293 247.251 501.125 246.92 502.202 246.92C503.279 246.92 504.106 247.251 504.682 247.912C505.269 248.563 505.562 249.443 505.562 250.552ZM504.202 250.552C504.202 249.795 504.031 249.203 503.69 248.776C503.349 248.339 502.853 248.12 502.202 248.12C501.562 248.12 501.066 248.339 500.714 248.776C500.373 249.203 500.202 249.795 500.202 250.552V251.512C500.202 252.301 500.373 252.909 500.714 253.336C501.066 253.763 501.562 253.976 502.202 253.976C502.853 253.976 503.349 253.763 503.69 253.336C504.031 252.909 504.202 252.301 504.202 251.512V250.552ZM507.93 253.08V243.16H509.242V253.016C509.242 253.304 509.285 253.523 509.37 253.672C509.466 253.811 509.653 253.88 509.93 253.88H510.186V255.08H509.818C509.114 255.08 508.624 254.893 508.346 254.52C508.069 254.147 507.93 253.667 507.93 253.08ZM512.149 253.08V243.16H513.461V253.016C513.461 253.304 513.504 253.523 513.589 253.672C513.685 253.811 513.872 253.88 514.149 253.88H514.405V255.08H514.037C513.333 255.08 512.842 254.893 512.565 254.52C512.288 254.147 512.149 253.667 512.149 253.08ZM521.264 255V253.88C520.709 254.36 520.213 254.696 519.776 254.888C519.338 255.069 518.901 255.16 518.464 255.16C517.76 255.16 517.221 254.931 516.848 254.472C516.474 254.003 516.288 253.347 516.288 252.504V247.08H517.6V252.312C517.6 252.867 517.696 253.277 517.888 253.544C518.09 253.8 518.389 253.928 518.784 253.928C519.082 253.928 519.418 253.853 519.792 253.704C520.165 253.555 520.629 253.256 521.184 252.808V247.08H522.496V255H521.264ZM529.673 254.712C529.076 255.011 528.441 255.16 527.769 255.16C527.193 255.16 526.74 255.043 526.409 254.808C526.089 254.573 525.86 254.259 525.721 253.864C525.593 253.469 525.529 253.032 525.529 252.552V248.232H524.153V247.08H525.529V244.872H526.841V247.08H529.433V248.232H526.841V252.504C526.841 253.059 526.932 253.443 527.113 253.656C527.305 253.859 527.599 253.96 527.993 253.96C528.185 253.96 528.383 253.939 528.585 253.896C528.799 253.843 529.028 253.757 529.273 253.64L529.673 254.712ZM532.791 245.144H531.319V243.672H532.791V245.144ZM532.711 255H531.399V247.08H532.711V255ZM541.812 250.552V251.512C541.812 252.643 541.519 253.533 540.932 254.184C540.356 254.835 539.529 255.16 538.452 255.16C537.385 255.16 536.559 254.835 535.972 254.184C535.385 253.533 535.092 252.643 535.092 251.512V250.552C535.092 249.443 535.38 248.563 535.956 247.912C536.543 247.251 537.375 246.92 538.452 246.92C539.529 246.92 540.356 247.251 540.932 247.912C541.519 248.563 541.812 249.443 541.812 250.552ZM540.452 250.552C540.452 249.795 540.281 249.203 539.94 248.776C539.599 248.339 539.103 248.12 538.452 248.12C537.812 248.12 537.316 248.339 536.964 248.776C536.623 249.203 536.452 249.795 536.452 250.552V251.512C536.452 252.301 536.623 252.909 536.964 253.336C537.316 253.763 537.812 253.976 538.452 253.976C539.103 253.976 539.599 253.763 539.94 253.336C540.281 252.909 540.452 252.301 540.452 251.512V250.552ZM548.004 248.152C547.706 248.152 547.354 248.227 546.948 248.376C546.554 248.525 546.074 248.829 545.508 249.288V255H544.196V247.08H545.444V248.184C546.01 247.704 546.522 247.373 546.98 247.192C547.45 247.011 547.898 246.92 548.324 246.92C549.06 246.92 549.62 247.155 550.004 247.624C550.399 248.083 550.596 248.739 550.596 249.592V255H549.284V249.784C549.284 248.696 548.858 248.152 548.004 248.152ZM557.749 250.568V251.512C557.749 252.323 557.899 252.936 558.197 253.352C558.496 253.757 558.971 253.96 559.621 253.96C560.261 253.96 560.949 253.795 561.685 253.464L562.085 254.568C561.211 254.963 560.363 255.16 559.541 255.16C558.517 255.16 557.739 254.835 557.205 254.184C556.672 253.533 556.405 252.643 556.405 251.512V250.568C556.405 249.437 556.672 248.547 557.205 247.896C557.739 247.245 558.517 246.92 559.541 246.92C559.925 246.92 560.32 246.973 560.725 247.08C561.141 247.176 561.557 247.315 561.973 247.496L561.573 248.616C561.221 248.467 560.88 248.349 560.549 248.264C560.229 248.179 559.92 248.136 559.621 248.136C558.971 248.136 558.496 248.344 558.197 248.76C557.899 249.165 557.749 249.768 557.749 250.568ZM570.25 250.552V251.512C570.25 252.643 569.956 253.533 569.37 254.184C568.794 254.835 567.967 255.16 566.89 255.16C565.823 255.16 564.996 254.835 564.41 254.184C563.823 253.533 563.53 252.643 563.53 251.512V250.552C563.53 249.443 563.818 248.563 564.394 247.912C564.98 247.251 565.812 246.92 566.89 246.92C567.967 246.92 568.794 247.251 569.37 247.912C569.956 248.563 570.25 249.443 570.25 250.552ZM568.89 250.552C568.89 249.795 568.719 249.203 568.378 248.776C568.036 248.339 567.54 248.12 566.89 248.12C566.25 248.12 565.754 248.339 565.402 248.776C565.06 249.203 564.89 249.795 564.89 250.552V251.512C564.89 252.301 565.06 252.909 565.402 253.336C565.754 253.763 566.25 253.976 566.89 253.976C567.54 253.976 568.036 253.763 568.378 253.336C568.719 252.909 568.89 252.301 568.89 251.512V250.552ZM574.57 253.992C575.636 253.992 576.17 253.629 576.17 252.904C576.17 252.595 576.074 252.349 575.882 252.168C575.69 251.987 575.338 251.832 574.826 251.704L573.946 251.48C573.295 251.32 572.81 251.043 572.49 250.648C572.17 250.243 572.01 249.763 572.01 249.208C572.01 248.803 572.1 248.429 572.282 248.088C572.463 247.736 572.751 247.453 573.146 247.24C573.54 247.027 574.052 246.92 574.682 246.92C575.087 246.92 575.498 246.968 575.914 247.064C576.34 247.149 576.772 247.299 577.21 247.512L576.794 248.616C576.015 248.264 575.311 248.088 574.682 248.088C573.754 248.088 573.29 248.435 573.29 249.128C573.29 249.395 573.375 249.624 573.546 249.816C573.716 250.008 574.036 250.163 574.506 250.28L575.386 250.504C576.09 250.675 576.607 250.952 576.938 251.336C577.268 251.72 577.434 252.216 577.434 252.824C577.434 253.261 577.338 253.661 577.146 254.024C576.964 254.376 576.666 254.653 576.25 254.856C575.844 255.059 575.295 255.16 574.602 255.16C574.143 255.16 573.684 255.112 573.226 255.016C572.778 254.92 572.314 254.765 571.834 254.552L572.186 253.464C572.644 253.645 573.06 253.779 573.434 253.864C573.807 253.949 574.186 253.992 574.57 253.992ZM583.876 254.712C583.279 255.011 582.644 255.16 581.972 255.16C581.396 255.16 580.943 255.043 580.612 254.808C580.292 254.573 580.063 254.259 579.924 253.864C579.796 253.469 579.732 253.032 579.732 252.552V248.232H578.356V247.08H579.732V244.872H581.044V247.08H583.636V248.232H581.044V252.504C581.044 253.059 581.135 253.443 581.316 253.656C581.508 253.859 581.802 253.96 582.196 253.96C582.388 253.96 582.586 253.939 582.788 253.896C583.002 253.843 583.231 253.757 583.476 253.64L583.876 254.712ZM587.539 253.992C588.605 253.992 589.139 253.629 589.139 252.904C589.139 252.595 589.043 252.349 588.851 252.168C588.659 251.987 588.307 251.832 587.795 251.704L586.915 251.48C586.264 251.32 585.779 251.043 585.459 250.648C585.139 250.243 584.979 249.763 584.979 249.208C584.979 248.803 585.069 248.429 585.251 248.088C585.432 247.736 585.72 247.453 586.115 247.24C586.509 247.027 587.021 246.92 587.651 246.92C588.056 246.92 588.467 246.968 588.883 247.064C589.309 247.149 589.741 247.299 590.179 247.512L589.763 248.616C588.984 248.264 588.28 248.088 587.651 248.088C586.723 248.088 586.259 248.435 586.259 249.128C586.259 249.395 586.344 249.624 586.515 249.816C586.685 250.008 587.005 250.163 587.475 250.28L588.355 250.504C589.059 250.675 589.576 250.952 589.907 251.336C590.237 251.72 590.403 252.216 590.403 252.824C590.403 253.261 590.307 253.661 590.115 254.024C589.933 254.376 589.635 254.653 589.219 254.856C588.813 255.059 588.264 255.16 587.571 255.16C587.112 255.16 586.653 255.112 586.195 255.016C585.747 254.92 585.283 254.765 584.803 254.552L585.155 253.464C585.613 253.645 586.029 253.779 586.403 253.864C586.776 253.949 587.155 253.992 587.539 253.992Z" fill="black"/>
<path d="M53.2318 149.683C53.2318 134.925 61.4969 123.77 73.3223 115.271C79.2365 111.02 87.0986 104.599 94.4074 103.137C98.4728 102.324 103.904 93.4643 106.939 90.7048C111.097 86.9249 115.576 82.4856 121.162 81.5546C125.506 80.8305 129.372 83.0144 133.395 82.6487C135.375 82.4687 141.36 70.5578 142.744 68.7245C149.794 59.3878 154.435 51.5539 165.918 47.0426C171.988 44.6578 180.462 48.0168 186.506 49.6285C194.675 51.8071 192.915 51.543 201.027 45.9486C211.299 38.8643 221.756 31.348 234.743 32.6212C243.589 33.4884 249.667 37.1043 257.32 40.0806C259.727 41.0166 272.415 28.237 274.824 26.5543C282.02 21.5287 287.263 20.7857 295.711 20.7857C300.393 20.7857 307.141 23.684 311.326 21.3824C319.21 17.0458 325.94 11.8368 334.3 8.25396" stroke="black" stroke-width="3" stroke-linecap="round"/>
<path d="M220.62 139.037C230.801 139.037 236.873 146.535 245.871 150.617C260.225 157.128 297.156 170.288 310.523 155.009C312.438 152.821 313.262 139.739 315.338 139.137C319.57 137.908 324.974 138.804 329.388 138.039C338.157 136.518 343.545 132.262 350.316 126.758C353.633 124.063 354.673 118.468 358.963 119.67C371.647 123.225 383.662 116.038 390.011 104.896C392.384 100.732 397.457 104.896 401.016 104.896C415.518 104.896 429.326 94.3598 439.925 85.1297" stroke="black" stroke-width="3" stroke-linecap="round"/>
<path d="M168.017 157.803C174.954 158.509 181.59 164.384 188.354 166.195C198.732 168.974 211.188 170.057 219.866 163.51C227.932 157.425 225.687 151.063 230.676 144.208" stroke="black" stroke-width="3" stroke-linecap="round"/>
<path d="M52.4052 150.019C49.3705 152.674 47.2802 143.261 46.6948 141.285C44.8991 135.225 46.6291 124.175 50.3058 118.864C57.9477 107.826 66.1566 95.6029 81.8805 95.6029C84.1679 95.6029 91.552 94.9234 92.0415 94.0913C94.8825 89.2615 100.093 86.5863 103.042 81.9989C107.689 74.7702 118.903 63.0145 127.227 67.6391C132.941 70.8134 130.421 65.9417 131.09 61.5929C132.003 55.6549 138.016 49.139 142.762 45.7216C152.432 38.7596 164.006 29.3903 177.024 32.4535C184.502 34.213 186.504 38.5482 192.98 34.3849C200.982 29.2408 206.935 22.4667 217.165 21.5367C221.971 21.0998 232.513 21.9013 235.387 17.5899C239.171 11.9137 245.792 1.88654 253.442 1.88654" stroke="#FBD349" stroke-width="3" stroke-linecap="round"/>
<path d="M259.488 145.484C273.863 145.484 288.932 146.94 300.3 134.903C302.391 132.689 301.463 128.831 305.59 131.124C309.166 133.111 315.013 131.008 318.607 130.033C327.285 127.677 336.305 120.769 341.7 113.658C343.548 111.222 341.615 107.973 343.463 105.596C345.394 103.114 351.354 107.559 353.876 107.695C361.855 108.127 372.153 108.776 378.145 102.153C381.027 98.9674 386.635 80.6605 389.482 82.3348C396.901 86.6989 401.288 90.6117 410.643 86.8695C412.999 85.9273 415.655 86.7987 418.033 85.6098C421.319 83.9668 424.625 80.944 427.858 78.9758C432.554 76.1174 437.009 72.2599 440.874 68.3949C447.345 61.9246 446.921 57.4753 446.921 48.7447" stroke="#FBD349" stroke-width="3" stroke-linecap="round"/>
<defs>
<filter id="filter0_d_8_2" x="-0.00410461" y="292.693" width="133.231" height="10.507" filterUnits="userSpaceOnUse" color-interpolation-filters="sRGB">
<feFlood flood-opacity="0" result="BackgroundImageFix"/>
<feColorMatrix in="SourceAlpha" type="matrix" values="0 0 0 0 0 0 0 0 0 0 0 0 0 0 0 0 0 0 127 0" result="hardAlpha"/>
<feOffset dy="4"/>
<feGaussianBlur stdDeviation="2"/>
<feComposite in2="hardAlpha" operator="out"/>
<feColorMatrix type="matrix" values="0 0 0 0 0 0 0 0 0 0 0 0 0 0 0 0 0 0 0.25 0"/>
<feBlend mode="normal" in2="BackgroundImageFix" result="effect1_dropShadow_8_2"/>
<feBlend mode="normal" in="SourceGraphic" in2="effect1_dropShadow_8_2" result="shape"/>
</filter>
</defs>
</svg>
